<svg id="my-svg" width="100%" xmlns="http://www.w3.org/2000/svg" xmlns:xlink="http://www.w3.org/1999/xlink" style="max-width: 2382.5px; background-color: white;" viewBox="-18 -18 2382.5 1359" role="graphics-document document" aria-roledescription="sequence"><g><rect x="1366" y="-5" fill="rgba(214, 234, 248, 0.70)" stroke="rgb(0,0,0, 0.5)" width="871" height="1326" class="rect"/><text x="1801.5" y="13.5" dominant-baseline="central" alignment-baseline="central" class="text" style="text-anchor: middle; font-size: 16px; font-weight: 400;"><tspan x="1801.5" dy="0">Feature/model input construction</tspan></text></g><g><rect x="745" y="-5" fill="rgba(255, 243, 191, 0.65)" stroke="rgb(0,0,0, 0.5)" width="455" height="1326" class="rect"/><text x="972.5" y="13.5" dominant-baseline="central" alignment-baseline="central" class="text" style="text-anchor: middle; font-size: 16px; font-weight: 400;"><tspan x="972.5" dy="0">Gap handling and signal processing</tspan></text></g><g><rect x="-20" y="-5" fill="rgba(232, 241, 242, 0.75)" stroke="rgb(0,0,0, 0.5)" width="568" height="1326" class="rect"/><text x="264" y="13.5" dominant-baseline="central" alignment-baseline="central" class="text" style="text-anchor: middle; font-size: 16px; font-weight: 400;"><tspan x="264" dy="0">Data acquisition and provenance</tspan></text></g><rect x="1300.5" y="856" fill="rgba(214, 234, 248, 0.35)" width="1046" height="360" class="rect"/><rect x="285.5" y="428" fill="rgba(255, 243, 191, 0.35)" width="1191.5" height="418" class="rect"/><rect x="69" y="102" fill="rgba(232, 241, 242, 0.35)" width="550" height="316" class="rect"/><g><rect x="2062" y="1236" fill="#eaeaea" stroke="#666" width="150" height="65" name="MI" rx="3" ry="3" class="actor actor-bottom"/><text x="2137" y="1268.5" dominant-baseline="central" alignment-baseline="central" class="actor actor-box" style="text-anchor: middle; font-size: 16px; font-weight: 400;"><tspan x="2137" dy="0">Model Input</tspan></text></g><g><rect x="1678" y="1236" fill="#eaeaea" stroke="#666" width="150" height="65" name="TR" rx="3" ry="3" class="actor actor-bottom"/><text x="1753" y="1268.5" dominant-baseline="central" alignment-baseline="central" class="actor actor-box" style="text-anchor: middle; font-size: 16px; font-weight: 400;"><tspan x="1753" dy="0">Transformer</tspan></text></g><g><rect x="1391" y="1236" fill="#eaeaea" stroke="#666" width="150" height="65" name="FE" rx="3" ry="3" class="actor actor-bottom"/><text x="1466" y="1268.5" dominant-baseline="central" alignment-baseline="central" class="actor actor-box" style="text-anchor: middle; font-size: 16px; font-weight: 400;"><tspan x="1466" dy="0">Feature Engineer</tspan></text></g><g><rect x="1025" y="1236" fill="#eaeaea" stroke="#666" width="150" height="65" name="SF" rx="3" ry="3" class="actor actor-bottom"/><text x="1100" y="1268.5" dominant-baseline="central" alignment-baseline="central" class="actor actor-box" style="text-anchor: middle; font-size: 16px; font-weight: 400;"><tspan x="1100" dy="0">Signal Filter</tspan></text></g><g><rect x="770" y="1236" fill="#eaeaea" stroke="#666" width="150" height="65" name="IM" rx="3" ry="3" class="actor actor-bottom"/><text x="845" y="1268.5" dominant-baseline="central" alignment-baseline="central" class="actor actor-box" style="text-anchor: middle; font-size: 16px; font-weight: 400;"><tspan x="845" dy="0">Imputation Module</tspan></text></g><g><rect x="373" y="1236" fill="#eaeaea" stroke="#666" width="150" height="65" name="PP" rx="3" ry="3" class="actor actor-bottom"/><text x="448" y="1268.5" dominant-baseline="central" alignment-baseline="central" class="actor actor-box" style="text-anchor: middle; font-size: 16px; font-weight: 400;"><tspan x="448" dy="0">Preprocessor</tspan></text></g><g><rect x="5" y="1236" fill="#eaeaea" stroke="#666" width="150" height="65" name="RD" rx="3" ry="3" class="actor actor-bottom"/><text x="80" y="1268.5" dominant-baseline="central" alignment-baseline="central" class="actor actor-box" style="text-anchor: middle; font-size: 16px; font-weight: 400;"><tspan x="80" dy="0">Raw Data</tspan></text></g><g><line id="actor6" x1="2137" y1="92" x2="2137" y2="1236" class="actor-line 200" stroke-width="0.5px" stroke="#999" name="MI" data-et="life-line" data-id="MI"/><g id="root-6" data-et="participant" data-type="participant" data-id="MI"><rect x="2062" y="27" fill="#eaeaea" stroke="#666" width="150" height="65" name="MI" rx="3" ry="3" class="actor actor-top"/><text x="2137" y="59.5" dominant-baseline="central" alignment-baseline="central" class="actor actor-box" style="text-anchor: middle; font-size: 16px; font-weight: 400;"><tspan x="2137" dy="0">Model Input</tspan></text></g></g><g><line id="actor5" x1="1753" y1="92" x2="1753" y2="1236" class="actor-line 200" stroke-width="0.5px" stroke="#999" name="TR" data-et="life-line" data-id="TR"/><g id="root-5" data-et="participant" data-type="participant" data-id="TR"><rect x="1678" y="27" fill="#eaeaea" stroke="#666" width="150" height="65" name="TR" rx="3" ry="3" class="actor actor-top"/><text x="1753" y="59.5" dominant-baseline="central" alignment-baseline="central" class="actor actor-box" style="text-anchor: middle; font-size: 16px; font-weight: 400;"><tspan x="1753" dy="0">Transformer</tspan></text></g></g><g><line id="actor4" x1="1466" y1="92" x2="1466" y2="1236" class="actor-line 200" stroke-width="0.5px" stroke="#999" name="FE" data-et="life-line" data-id="FE"/><g id="root-4" data-et="participant" data-type="participant" data-id="FE"><rect x="1391" y="27" fill="#eaeaea" stroke="#666" width="150" height="65" name="FE" rx="3" ry="3" class="actor actor-top"/><text x="1466" y="59.5" dominant-baseline="central" alignment-baseline="central" class="actor actor-box" style="text-anchor: middle; font-size: 16px; font-weight: 400;"><tspan x="1466" dy="0">Feature Engineer</tspan></text></g></g><g><line id="actor3" x1="1100" y1="92" x2="1100" y2="1236" class="actor-line 200" stroke-width="0.5px" stroke="#999" name="SF" data-et="life-line" data-id="SF"/><g id="root-3" data-et="participant" data-type="participant" data-id="SF"><rect x="1025" y="27" fill="#eaeaea" stroke="#666" width="150" height="65" name="SF" rx="3" ry="3" class="actor actor-top"/><text x="1100" y="59.5" dominant-baseline="central" alignment-baseline="central" class="actor actor-box" style="text-anchor: middle; font-size: 16px; font-weight: 400;"><tspan x="1100" dy="0">Signal Filter</tspan></text></g></g><g><line id="actor2" x1="845" y1="92" x2="845" y2="1236" class="actor-line 200" stroke-width="0.5px" stroke="#999" name="IM" data-et="life-line" data-id="IM"/><g id="root-2" data-et="participant" data-type="participant" data-id="IM"><rect x="770" y="27" fill="#eaeaea" stroke="#666" width="150" height="65" name="IM" rx="3" ry="3" class="actor actor-top"/><text x="845" y="59.5" dominant-baseline="central" alignment-baseline="central" class="actor actor-box" style="text-anchor: middle; font-size: 16px; font-weight: 400;"><tspan x="845" dy="0">Imputation Module</tspan></text></g></g><g><line id="actor1" x1="448" y1="92" x2="448" y2="1236" class="actor-line 200" stroke-width="0.5px" stroke="#999" name="PP" data-et="life-line" data-id="PP"/><g id="root-1" data-et="participant" data-type="participant" data-id="PP"><rect x="373" y="27" fill="#eaeaea" stroke="#666" width="150" height="65" name="PP" rx="3" ry="3" class="actor actor-top"/><text x="448" y="59.5" dominant-baseline="central" alignment-baseline="central" class="actor actor-box" style="text-anchor: middle; font-size: 16px; font-weight: 400;"><tspan x="448" dy="0">Preprocessor</tspan></text></g></g><g><line id="actor0" x1="80" y1="92" x2="80" y2="1236" class="actor-line 200" stroke-width="0.5px" stroke="#999" name="RD" data-et="life-line" data-id="RD"/><g id="root-0" data-et="participant" data-type="participant" data-id="RD"><rect x="5" y="27" fill="#eaeaea" stroke="#666" width="150" height="65" name="RD" rx="3" ry="3" class="actor actor-top"/><text x="80" y="59.5" dominant-baseline="central" alignment-baseline="central" class="actor actor-box" style="text-anchor: middle; font-size: 16px; font-weight: 400;"><tspan x="80" dy="0">Raw Data</tspan></text></g></g><style>#my-svg{font-family:Arial;font-size:18px;fill:#1F2933;}@keyframes edge-animation-frame{from{stroke-dashoffset:0;}}@keyframes dash{to{stroke-dashoffset:0;}}#my-svg .edge-animation-slow{stroke-dasharray:9,5!important;stroke-dashoffset:900;animation:dash 50s linear infinite;stroke-linecap:round;}#my-svg .edge-animation-fast{stroke-dasharray:9,5!important;stroke-dashoffset:900;animation:dash 20s linear infinite;stroke-linecap:round;}#my-svg .error-icon{fill:hsl(30, 100%, 100%);}#my-svg .error-text{fill:#000000;stroke:#000000;}#my-svg .edge-thickness-normal{stroke-width:1px;}#my-svg .edge-thickness-thick{stroke-width:3.5px;}#my-svg .edge-pattern-solid{stroke-dasharray:0;}#my-svg .edge-thickness-invisible{stroke-width:0;fill:none;}#my-svg .edge-pattern-dashed{stroke-dasharray:3;}#my-svg .edge-pattern-dotted{stroke-dasharray:2;}#my-svg .marker{fill:#33658A;stroke:#33658A;}#my-svg .marker.cross{stroke:#33658A;}#my-svg svg{font-family:Arial;font-size:18px;}#my-svg p{margin:0;}#my-svg .actor{stroke:#2F4858;fill:#E8F1F2;stroke-width:1;}#my-svg rect.actor.outer-path[data-look="neo"]{filter:drop-shadow( 1px 2px 2px rgba(185,185,185,1));}#my-svg rect.note[data-look="neo"]{stroke:#E0A800;fill:#FFF3BF;filter:drop-shadow( 1px 2px 2px rgba(185,185,185,1));}#my-svg text.actor&gt;tspan{fill:#1F2933;stroke:none;}#my-svg .actor-line{stroke:#2F4858;}#my-svg .innerArc{stroke-width:1.5;stroke-dasharray:none;}#my-svg .messageLine0{stroke-width:1.5;stroke-dasharray:none;stroke:#1F2933;}#my-svg .messageLine1{stroke-width:1.5;stroke-dasharray:2,2;stroke:#1F2933;}#my-svg [id$="-arrowhead"] path{fill:#1F2933;stroke:#1F2933;}#my-svg .sequenceNumber{fill:#cc9a75;}#my-svg [id$="-sequencenumber"]{fill:#1F2933;}#my-svg [id$="-crosshead"] path{fill:#1F2933;stroke:#1F2933;}#my-svg .messageText{fill:#1F2933;stroke:none;}#my-svg .labelBox{stroke:#2F4858;fill:#E8F1F2;filter:none;}#my-svg .labelText,#my-svg .labelText&gt;tspan{fill:#1F2933;stroke:none;}#my-svg .loopText,#my-svg .loopText&gt;tspan{fill:#1F2933;stroke:none;}#my-svg .sectionTitle,#my-svg .sectionTitle&gt;tspan{fill:#1F2933;stroke:none;}#my-svg .loopLine{stroke-width:2px;stroke-dasharray:2,2;stroke:#2F4858;fill:#2F4858;}#my-svg .note{stroke:#E0A800;fill:#FFF3BF;}#my-svg .noteText,#my-svg .noteText&gt;tspan{fill:#333;stroke:none;font-weight:normal;}#my-svg .activation0{fill:#D7EAF3;stroke:#33658A;}#my-svg .activation1{fill:#D7EAF3;stroke:#33658A;}#my-svg .activation2{fill:#D7EAF3;stroke:#33658A;}#my-svg .actorPopupMenu{position:absolute;}#my-svg .actorPopupMenuPanel{position:absolute;fill:#E8F1F2;box-shadow:0px 8px 16px 0px rgba(0,0,0,0.2);filter:drop-shadow(3px 5px 2px rgb(0 0 0 / 0.4));}#my-svg .actor-man circle,#my-svg line{fill:#E8F1F2;stroke-width:2px;}#my-svg g rect.rect{filter:drop-shadow( 1px 2px 2px rgba(185,185,185,1));stroke:#2F4858;}#my-svg .node .neo-node{stroke:#2F4858;}#my-svg [data-look="neo"].node rect,#my-svg [data-look="neo"].cluster rect,#my-svg [data-look="neo"].node polygon{stroke:url(#my-svg-gradient);filter:drop-shadow( 1px 2px 2px rgba(185,185,185,1));}#my-svg [data-look="neo"].node path{stroke:url(#my-svg-gradient);stroke-width:1px;}#my-svg [data-look="neo"].node .outer-path{filter:drop-shadow( 1px 2px 2px rgba(185,185,185,1));}#my-svg [data-look="neo"].node .neo-line path{stroke:#2F4858;filter:none;}#my-svg [data-look="neo"].node circle{stroke:url(#my-svg-gradient);filter:drop-shadow( 1px 2px 2px rgba(185,185,185,1));}#my-svg [data-look="neo"].node circle .state-start{fill:#000000;}#my-svg [data-look="neo"].icon-shape .icon{fill:url(#my-svg-gradient);filter:drop-shadow( 1px 2px 2px rgba(185,185,185,1));}#my-svg [data-look="neo"].icon-shape .icon-neo path{stroke:url(#my-svg-gradient);filter:drop-shadow( 1px 2px 2px rgba(185,185,185,1));}#my-svg :root{--mermaid-font-family:"trebuchet ms",verdana,arial,sans-serif;}</style><g/><defs><symbol id="my-svg-computer" width="24" height="24"><path transform="scale(.5)" d="M2 2v13h20v-13h-20zm18 11h-16v-9h16v9zm-10.228 6l.466-1h3.524l.467 1h-4.457zm14.228 3h-24l2-6h2.104l-1.33 4h18.45l-1.297-4h2.073l2 6zm-5-10h-14v-7h14v7z"/></symbol></defs><defs><symbol id="my-svg-database" fill-rule="evenodd" clip-rule="evenodd"><path transform="scale(.5)" d="M12.258.001l.256.004.255.005.253.008.251.01.249.012.247.015.246.016.242.019.241.02.239.023.236.024.233.027.231.028.229.031.225.032.223.034.22.036.217.038.214.04.211.041.208.043.205.045.201.046.198.048.194.05.191.051.187.053.183.054.18.056.175.057.172.059.168.06.163.061.16.063.155.064.15.066.074.033.073.033.071.034.07.034.069.035.068.035.067.035.066.035.064.036.064.036.062.036.06.036.06.037.058.037.058.037.055.038.055.038.053.038.052.038.051.039.05.039.048.039.047.039.045.04.044.04.043.04.041.04.04.041.039.041.037.041.036.041.034.041.033.042.032.042.03.042.029.042.027.042.026.043.024.043.023.043.021.043.02.043.018.044.017.043.015.044.013.044.012.044.011.045.009.044.007.045.006.045.004.045.002.045.001.045v17l-.001.045-.002.045-.004.045-.006.045-.007.045-.009.044-.011.045-.012.044-.013.044-.015.044-.017.043-.018.044-.02.043-.021.043-.023.043-.024.043-.026.043-.027.042-.029.042-.03.042-.032.042-.033.042-.034.041-.036.041-.037.041-.039.041-.04.041-.041.04-.043.04-.044.04-.045.04-.047.039-.048.039-.05.039-.051.039-.052.038-.053.038-.055.038-.055.038-.058.037-.058.037-.06.037-.06.036-.062.036-.064.036-.064.036-.066.035-.067.035-.068.035-.069.035-.07.034-.071.034-.073.033-.074.033-.15.066-.155.064-.16.063-.163.061-.168.06-.172.059-.175.057-.18.056-.183.054-.187.053-.191.051-.194.05-.198.048-.201.046-.205.045-.208.043-.211.041-.214.04-.217.038-.22.036-.223.034-.225.032-.229.031-.231.028-.233.027-.236.024-.239.023-.241.02-.242.019-.246.016-.247.015-.249.012-.251.01-.253.008-.255.005-.256.004-.258.001-.258-.001-.256-.004-.255-.005-.253-.008-.251-.01-.249-.012-.247-.015-.245-.016-.243-.019-.241-.02-.238-.023-.236-.024-.234-.027-.231-.028-.228-.031-.226-.032-.223-.034-.22-.036-.217-.038-.214-.04-.211-.041-.208-.043-.204-.045-.201-.046-.198-.048-.195-.05-.19-.051-.187-.053-.184-.054-.179-.056-.176-.057-.172-.059-.167-.06-.164-.061-.159-.063-.155-.064-.151-.066-.074-.033-.072-.033-.072-.034-.07-.034-.069-.035-.068-.035-.067-.035-.066-.035-.064-.036-.063-.036-.062-.036-.061-.036-.06-.037-.058-.037-.057-.037-.056-.038-.055-.038-.053-.038-.052-.038-.051-.039-.049-.039-.049-.039-.046-.039-.046-.04-.044-.04-.043-.04-.041-.04-.04-.041-.039-.041-.037-.041-.036-.041-.034-.041-.033-.042-.032-.042-.03-.042-.029-.042-.027-.042-.026-.043-.024-.043-.023-.043-.021-.043-.02-.043-.018-.044-.017-.043-.015-.044-.013-.044-.012-.044-.011-.045-.009-.044-.007-.045-.006-.045-.004-.045-.002-.045-.001-.045v-17l.001-.045.002-.045.004-.045.006-.045.007-.045.009-.044.011-.045.012-.044.013-.044.015-.044.017-.043.018-.044.02-.043.021-.043.023-.043.024-.043.026-.043.027-.042.029-.042.03-.042.032-.042.033-.042.034-.041.036-.041.037-.041.039-.041.04-.041.041-.04.043-.04.044-.04.046-.04.046-.039.049-.039.049-.039.051-.039.052-.038.053-.038.055-.038.056-.038.057-.037.058-.037.06-.037.061-.036.062-.036.063-.036.064-.036.066-.035.067-.035.068-.035.069-.035.07-.034.072-.034.072-.033.074-.033.151-.066.155-.064.159-.063.164-.061.167-.06.172-.059.176-.057.179-.056.184-.054.187-.053.19-.051.195-.05.198-.048.201-.046.204-.045.208-.043.211-.041.214-.04.217-.038.22-.036.223-.034.226-.032.228-.031.231-.028.234-.027.236-.024.238-.023.241-.02.243-.019.245-.016.247-.015.249-.012.251-.01.253-.008.255-.005.256-.004.258-.001.258.001zm-9.258 20.499v.01l.001.021.003.021.004.022.005.021.006.022.007.022.009.023.01.022.011.023.012.023.013.023.015.023.016.024.017.023.018.024.019.024.021.024.022.025.023.024.024.025.052.049.056.05.061.051.066.051.07.051.075.051.079.052.084.052.088.052.092.052.097.052.102.051.105.052.11.052.114.051.119.051.123.051.127.05.131.05.135.05.139.048.144.049.147.047.152.047.155.047.16.045.163.045.167.043.171.043.176.041.178.041.183.039.187.039.19.037.194.035.197.035.202.033.204.031.209.03.212.029.216.027.219.025.222.024.226.021.23.02.233.018.236.016.24.015.243.012.246.01.249.008.253.005.256.004.259.001.26-.001.257-.004.254-.005.25-.008.247-.011.244-.012.241-.014.237-.016.233-.018.231-.021.226-.021.224-.024.22-.026.216-.027.212-.028.21-.031.205-.031.202-.034.198-.034.194-.036.191-.037.187-.039.183-.04.179-.04.175-.042.172-.043.168-.044.163-.045.16-.046.155-.046.152-.047.148-.048.143-.049.139-.049.136-.05.131-.05.126-.05.123-.051.118-.052.114-.051.11-.052.106-.052.101-.052.096-.052.092-.052.088-.053.083-.051.079-.052.074-.052.07-.051.065-.051.06-.051.056-.05.051-.05.023-.024.023-.025.021-.024.02-.024.019-.024.018-.024.017-.024.015-.023.014-.024.013-.023.012-.023.01-.023.01-.022.008-.022.006-.022.006-.022.004-.022.004-.021.001-.021.001-.021v-4.127l-.077.055-.08.053-.083.054-.085.053-.087.052-.09.052-.093.051-.095.05-.097.05-.1.049-.102.049-.105.048-.106.047-.109.047-.111.046-.114.045-.115.045-.118.044-.12.043-.122.042-.124.042-.126.041-.128.04-.13.04-.132.038-.134.038-.135.037-.138.037-.139.035-.142.035-.143.034-.144.033-.147.032-.148.031-.15.03-.151.03-.153.029-.154.027-.156.027-.158.026-.159.025-.161.024-.162.023-.163.022-.165.021-.166.02-.167.019-.169.018-.169.017-.171.016-.173.015-.173.014-.175.013-.175.012-.177.011-.178.01-.179.008-.179.008-.181.006-.182.005-.182.004-.184.003-.184.002h-.37l-.184-.002-.184-.003-.182-.004-.182-.005-.181-.006-.179-.008-.179-.008-.178-.01-.176-.011-.176-.012-.175-.013-.173-.014-.172-.015-.171-.016-.17-.017-.169-.018-.167-.019-.166-.02-.165-.021-.163-.022-.162-.023-.161-.024-.159-.025-.157-.026-.156-.027-.155-.027-.153-.029-.151-.03-.15-.03-.148-.031-.146-.032-.145-.033-.143-.034-.141-.035-.14-.035-.137-.037-.136-.037-.134-.038-.132-.038-.13-.04-.128-.04-.126-.041-.124-.042-.122-.042-.12-.044-.117-.043-.116-.045-.113-.045-.112-.046-.109-.047-.106-.047-.105-.048-.102-.049-.1-.049-.097-.05-.095-.05-.093-.052-.09-.051-.087-.052-.085-.053-.083-.054-.08-.054-.077-.054v4.127zm0-5.654v.011l.001.021.003.021.004.021.005.022.006.022.007.022.009.022.01.022.011.023.012.023.013.023.015.024.016.023.017.024.018.024.019.024.021.024.022.024.023.025.024.024.052.05.056.05.061.05.066.051.07.051.075.052.079.051.084.052.088.052.092.052.097.052.102.052.105.052.11.051.114.051.119.052.123.05.127.051.131.05.135.049.139.049.144.048.147.048.152.047.155.046.16.045.163.045.167.044.171.042.176.042.178.04.183.04.187.038.19.037.194.036.197.034.202.033.204.032.209.03.212.028.216.027.219.025.222.024.226.022.23.02.233.018.236.016.24.014.243.012.246.01.249.008.253.006.256.003.259.001.26-.001.257-.003.254-.006.25-.008.247-.01.244-.012.241-.015.237-.016.233-.018.231-.02.226-.022.224-.024.22-.025.216-.027.212-.029.21-.03.205-.032.202-.033.198-.035.194-.036.191-.037.187-.039.183-.039.179-.041.175-.042.172-.043.168-.044.163-.045.16-.045.155-.047.152-.047.148-.048.143-.048.139-.05.136-.049.131-.05.126-.051.123-.051.118-.051.114-.052.11-.052.106-.052.101-.052.096-.052.092-.052.088-.052.083-.052.079-.052.074-.051.07-.052.065-.051.06-.05.056-.051.051-.049.023-.025.023-.024.021-.025.02-.024.019-.024.018-.024.017-.024.015-.023.014-.023.013-.024.012-.022.01-.023.01-.023.008-.022.006-.022.006-.022.004-.021.004-.022.001-.021.001-.021v-4.139l-.077.054-.08.054-.083.054-.085.052-.087.053-.09.051-.093.051-.095.051-.097.05-.1.049-.102.049-.105.048-.106.047-.109.047-.111.046-.114.045-.115.044-.118.044-.12.044-.122.042-.124.042-.126.041-.128.04-.13.039-.132.039-.134.038-.135.037-.138.036-.139.036-.142.035-.143.033-.144.033-.147.033-.148.031-.15.03-.151.03-.153.028-.154.028-.156.027-.158.026-.159.025-.161.024-.162.023-.163.022-.165.021-.166.02-.167.019-.169.018-.169.017-.171.016-.173.015-.173.014-.175.013-.175.012-.177.011-.178.009-.179.009-.179.007-.181.007-.182.005-.182.004-.184.003-.184.002h-.37l-.184-.002-.184-.003-.182-.004-.182-.005-.181-.007-.179-.007-.179-.009-.178-.009-.176-.011-.176-.012-.175-.013-.173-.014-.172-.015-.171-.016-.17-.017-.169-.018-.167-.019-.166-.02-.165-.021-.163-.022-.162-.023-.161-.024-.159-.025-.157-.026-.156-.027-.155-.028-.153-.028-.151-.03-.15-.03-.148-.031-.146-.033-.145-.033-.143-.033-.141-.035-.14-.036-.137-.036-.136-.037-.134-.038-.132-.039-.13-.039-.128-.04-.126-.041-.124-.042-.122-.043-.12-.043-.117-.044-.116-.044-.113-.046-.112-.046-.109-.046-.106-.047-.105-.048-.102-.049-.1-.049-.097-.05-.095-.051-.093-.051-.09-.051-.087-.053-.085-.052-.083-.054-.08-.054-.077-.054v4.139zm0-5.666v.011l.001.02.003.022.004.021.005.022.006.021.007.022.009.023.01.022.011.023.012.023.013.023.015.023.016.024.017.024.018.023.019.024.021.025.022.024.023.024.024.025.052.05.056.05.061.05.066.051.07.051.075.052.079.051.084.052.088.052.092.052.097.052.102.052.105.051.11.052.114.051.119.051.123.051.127.05.131.05.135.05.139.049.144.048.147.048.152.047.155.046.16.045.163.045.167.043.171.043.176.042.178.04.183.04.187.038.19.037.194.036.197.034.202.033.204.032.209.03.212.028.216.027.219.025.222.024.226.021.23.02.233.018.236.017.24.014.243.012.246.01.249.008.253.006.256.003.259.001.26-.001.257-.003.254-.006.25-.008.247-.01.244-.013.241-.014.237-.016.233-.018.231-.02.226-.022.224-.024.22-.025.216-.027.212-.029.21-.03.205-.032.202-.033.198-.035.194-.036.191-.037.187-.039.183-.039.179-.041.175-.042.172-.043.168-.044.163-.045.16-.045.155-.047.152-.047.148-.048.143-.049.139-.049.136-.049.131-.051.126-.05.123-.051.118-.052.114-.051.11-.052.106-.052.101-.052.096-.052.092-.052.088-.052.083-.052.079-.052.074-.052.07-.051.065-.051.06-.051.056-.05.051-.049.023-.025.023-.025.021-.024.02-.024.019-.024.018-.024.017-.024.015-.023.014-.024.013-.023.012-.023.01-.022.01-.023.008-.022.006-.022.006-.022.004-.022.004-.021.001-.021.001-.021v-4.153l-.077.054-.08.054-.083.053-.085.053-.087.053-.09.051-.093.051-.095.051-.097.05-.1.049-.102.048-.105.048-.106.048-.109.046-.111.046-.114.046-.115.044-.118.044-.12.043-.122.043-.124.042-.126.041-.128.04-.13.039-.132.039-.134.038-.135.037-.138.036-.139.036-.142.034-.143.034-.144.033-.147.032-.148.032-.15.03-.151.03-.153.028-.154.028-.156.027-.158.026-.159.024-.161.024-.162.023-.163.023-.165.021-.166.02-.167.019-.169.018-.169.017-.171.016-.173.015-.173.014-.175.013-.175.012-.177.01-.178.01-.179.009-.179.007-.181.006-.182.006-.182.004-.184.003-.184.001-.185.001-.185-.001-.184-.001-.184-.003-.182-.004-.182-.006-.181-.006-.179-.007-.179-.009-.178-.01-.176-.01-.176-.012-.175-.013-.173-.014-.172-.015-.171-.016-.17-.017-.169-.018-.167-.019-.166-.02-.165-.021-.163-.023-.162-.023-.161-.024-.159-.024-.157-.026-.156-.027-.155-.028-.153-.028-.151-.03-.15-.03-.148-.032-.146-.032-.145-.033-.143-.034-.141-.034-.14-.036-.137-.036-.136-.037-.134-.038-.132-.039-.13-.039-.128-.041-.126-.041-.124-.041-.122-.043-.12-.043-.117-.044-.116-.044-.113-.046-.112-.046-.109-.046-.106-.048-.105-.048-.102-.048-.1-.05-.097-.049-.095-.051-.093-.051-.09-.052-.087-.052-.085-.053-.083-.053-.08-.054-.077-.054v4.153zm8.74-8.179l-.257.004-.254.005-.25.008-.247.011-.244.012-.241.014-.237.016-.233.018-.231.021-.226.022-.224.023-.22.026-.216.027-.212.028-.21.031-.205.032-.202.033-.198.034-.194.036-.191.038-.187.038-.183.04-.179.041-.175.042-.172.043-.168.043-.163.045-.16.046-.155.046-.152.048-.148.048-.143.048-.139.049-.136.05-.131.05-.126.051-.123.051-.118.051-.114.052-.11.052-.106.052-.101.052-.096.052-.092.052-.088.052-.083.052-.079.052-.074.051-.07.052-.065.051-.06.05-.056.05-.051.05-.023.025-.023.024-.021.024-.02.025-.019.024-.018.024-.017.023-.015.024-.014.023-.013.023-.012.023-.01.023-.01.022-.008.022-.006.023-.006.021-.004.022-.004.021-.001.021-.001.021.001.021.001.021.004.021.004.022.006.021.006.023.008.022.01.022.01.023.012.023.013.023.014.023.015.024.017.023.018.024.019.024.02.025.021.024.023.024.023.025.051.05.056.05.06.05.065.051.07.052.074.051.079.052.083.052.088.052.092.052.096.052.101.052.106.052.11.052.114.052.118.051.123.051.126.051.131.05.136.05.139.049.143.048.148.048.152.048.155.046.16.046.163.045.168.043.172.043.175.042.179.041.183.04.187.038.191.038.194.036.198.034.202.033.205.032.21.031.212.028.216.027.22.026.224.023.226.022.231.021.233.018.237.016.241.014.244.012.247.011.25.008.254.005.257.004.26.001.26-.001.257-.004.254-.005.25-.008.247-.011.244-.012.241-.014.237-.016.233-.018.231-.021.226-.022.224-.023.22-.026.216-.027.212-.028.21-.031.205-.032.202-.033.198-.034.194-.036.191-.038.187-.038.183-.04.179-.041.175-.042.172-.043.168-.043.163-.045.16-.046.155-.046.152-.048.148-.048.143-.048.139-.049.136-.05.131-.05.126-.051.123-.051.118-.051.114-.052.11-.052.106-.052.101-.052.096-.052.092-.052.088-.052.083-.052.079-.052.074-.051.07-.052.065-.051.06-.05.056-.05.051-.05.023-.025.023-.024.021-.024.02-.025.019-.024.018-.024.017-.023.015-.024.014-.023.013-.023.012-.023.01-.023.01-.022.008-.022.006-.023.006-.021.004-.022.004-.021.001-.021.001-.021-.001-.021-.001-.021-.004-.021-.004-.022-.006-.021-.006-.023-.008-.022-.01-.022-.01-.023-.012-.023-.013-.023-.014-.023-.015-.024-.017-.023-.018-.024-.019-.024-.02-.025-.021-.024-.023-.024-.023-.025-.051-.05-.056-.05-.06-.05-.065-.051-.07-.052-.074-.051-.079-.052-.083-.052-.088-.052-.092-.052-.096-.052-.101-.052-.106-.052-.11-.052-.114-.052-.118-.051-.123-.051-.126-.051-.131-.05-.136-.05-.139-.049-.143-.048-.148-.048-.152-.048-.155-.046-.16-.046-.163-.045-.168-.043-.172-.043-.175-.042-.179-.041-.183-.04-.187-.038-.191-.038-.194-.036-.198-.034-.202-.033-.205-.032-.21-.031-.212-.028-.216-.027-.22-.026-.224-.023-.226-.022-.231-.021-.233-.018-.237-.016-.241-.014-.244-.012-.247-.011-.25-.008-.254-.005-.257-.004-.26-.001-.26.001z"/></symbol></defs><defs><symbol id="my-svg-clock" width="24" height="24"><path transform="scale(.5)" d="M12 2c5.514 0 10 4.486 10 10s-4.486 10-10 10-10-4.486-10-10 4.486-10 10-10zm0-2c-6.627 0-12 5.373-12 12s5.373 12 12 12 12-5.373 12-12-5.373-12-12-12zm5.848 12.459c.202.038.202.333.001.372-1.907.361-6.045 1.111-6.547 1.111-.719 0-1.301-.582-1.301-1.301 0-.512.77-5.447 1.125-7.445.034-.192.312-.181.343.014l.985 6.238 5.394 1.011z"/></symbol></defs><defs><marker id="my-svg-arrowhead" refX="7.9" refY="5" markerUnits="userSpaceOnUse" markerWidth="12" markerHeight="12" orient="auto-start-reverse"><path d="M -1 0 L 10 5 L 0 10 z"/></marker></defs><defs><marker id="my-svg-crosshead" markerWidth="15" markerHeight="8" orient="auto" refX="4" refY="4.5"><path fill="none" stroke="#000000" stroke-width="1pt" d="M 1,2 L 6,7 M 6,2 L 1,7" style="stroke-dasharray: 0, 0;"/></marker></defs><defs><marker id="my-svg-filled-head" refX="15.5" refY="7" markerWidth="20" markerHeight="28" orient="auto"><path d="M 18,7 L9,13 L14,7 L9,1 Z"/></marker></defs><defs><marker id="my-svg-sequencenumber" refX="15" refY="15" markerWidth="60" markerHeight="40" orient="auto"><circle cx="15" cy="15" r="6"/></marker></defs><defs><marker id="my-svg-solidTopArrowHead" refX="7.9" refY="7.25" markerUnits="userSpaceOnUse" markerWidth="12" markerHeight="12" orient="auto-start-reverse"><path d="M 0 0 L 10 8 L 0 8 z"/></marker></defs><defs><marker id="my-svg-solidBottomArrowHead" refX="7.9" refY="0.75" markerUnits="userSpaceOnUse" markerWidth="12" markerHeight="12" orient="auto-start-reverse"><path d="M 0 0 L 10 0 L 0 8 z"/></marker></defs><defs><marker id="my-svg-stickTopArrowHead" refX="7.5" refY="7" markerUnits="userSpaceOnUse" markerWidth="12" markerHeight="12" orient="auto-start-reverse"><path d="M 0 0 L 7 7" stroke="black" stroke-width="1.5" fill="none"/></marker></defs><defs><marker id="my-svg-stickBottomArrowHead" refX="7.5" refY="0" markerUnits="userSpaceOnUse" markerWidth="12" markerHeight="12" orient="auto-start-reverse"><path d="M 0 7 L 7 0" stroke="black" stroke-width="1.5" fill="none"/></marker></defs><g><rect x="443" y="156" fill="#EDF2AE" stroke="#666" width="10" height="562" class="activation0"/></g><g><rect x="840" y="484" fill="#EDF2AE" stroke="#666" width="10" height="116" class="activation0"/></g><g><rect x="1095" y="718" fill="#EDF2AE" stroke="#666" width="10" height="118" class="activation0"/></g><g><rect x="1461" y="866" fill="#EDF2AE" stroke="#666" width="10" height="118" class="activation0"/></g><g><rect x="1748" y="984" fill="#EDF2AE" stroke="#666" width="10" height="118" class="activation0"/></g><g><rect x="2132" y="1102" fill="#EDF2AE" stroke="#666" width="10" height="74" class="activation0"/></g><text x="263" y="127" text-anchor="middle" dominant-baseline="middle" alignment-baseline="middle" class="messageText" dy="1em" style="font-size: 16px; font-weight: 400;">Tabular time series with station/date/value fields</text><line x1="87" y1="156" x2="444" y2="156" class="messageLine0" data-et="message" data-id="i2" data-from="RD" data-to="PP" stroke-width="2" stroke="none" marker-end="url(#my-svg-arrowhead)" style="fill: none;"/><line x1="80" y1="156" x2="80" y2="156" stroke-width="0" marker-start="url(#my-svg-sequencenumber)"/><text x="80" y="160" font-family="sans-serif" font-size="12px" text-anchor="middle" class="sequenceNumber">1</text><text x="453" y="171" text-anchor="middle" dominant-baseline="middle" alignment-baseline="middle" class="messageText" dy="1em" style="font-size: 16px; font-weight: 400;">Parse dates, normalize units, and validate flags</text><path d="M 453,200 C 513,190 513,230 453,220" class="messageLine0" data-et="message" data-id="i4" data-from="PP" data-to="PP" stroke-width="2" stroke="none" marker-end="url(#my-svg-arrowhead)" x1="459" style="fill: none;"/><line x1="444" y1="200" x2="444" y2="200" stroke-width="0" marker-start="url(#my-svg-sequencenumber)"/><text x="444" y="204" font-family="sans-serif" font-size="12px" text-anchor="middle" class="sequenceNumber">2</text><text x="453" y="245" text-anchor="middle" dominant-baseline="middle" alignment-baseline="middle" class="messageText" dy="1em" style="font-size: 16px; font-weight: 400;">Resample to daily frequency</text><path d="M 453,274 C 513,264 513,304 453,294" class="messageLine0" data-et="message" data-id="i5" data-from="PP" data-to="PP" stroke-width="2" stroke="none" marker-end="url(#my-svg-arrowhead)" x1="459" style="fill: none;"/><line x1="444" y1="274" x2="444" y2="274" stroke-width="0" marker-start="url(#my-svg-sequencenumber)"/><text x="444" y="278" font-family="sans-serif" font-size="12px" text-anchor="middle" class="sequenceNumber">3</text><text x="453" y="319" text-anchor="middle" dominant-baseline="middle" alignment-baseline="middle" class="messageText" dy="1em" style="font-size: 16px; font-weight: 400;">Identify missing days and invalid sentinel values</text><path d="M 453,348 C 513,338 513,378 453,368" class="messageLine0" data-et="message" data-id="i6" data-from="PP" data-to="PP" stroke-width="2" stroke="none" marker-end="url(#my-svg-arrowhead)" x1="459" style="fill: none;"/><line x1="444" y1="348" x2="444" y2="348" stroke-width="0" marker-start="url(#my-svg-sequencenumber)"/><text x="444" y="352" font-family="sans-serif" font-size="12px" text-anchor="middle" class="sequenceNumber">4</text><text x="647" y="453" text-anchor="middle" dominant-baseline="middle" alignment-baseline="middle" class="messageText" dy="1em" style="font-size: 16px; font-weight: 400;">Request gap filling for missing daily values</text><line x1="459" y1="482" x2="841" y2="482" class="messageLine0" data-et="message" data-id="i9" data-from="PP" data-to="IM" stroke-width="2" stroke="none" marker-end="url(#my-svg-arrowhead)" style="fill: none;"/><line x1="444" y1="482" x2="444" y2="482" stroke-width="0" marker-start="url(#my-svg-sequencenumber)"/><text x="444" y="486" font-family="sans-serif" font-size="12px" text-anchor="middle" class="sequenceNumber">5</text><text x="850" y="497" text-anchor="middle" dominant-baseline="middle" alignment-baseline="middle" class="messageText" dy="1em" style="font-size: 16px; font-weight: 400;">Compute day-of-year or monthly baseline from available history</text><path d="M 850,526 C 910,516 910,556 850,546" class="messageLine0" data-et="message" data-id="i11" data-from="IM" data-to="IM" stroke-width="2" stroke="none" marker-end="url(#my-svg-arrowhead)" x1="856" style="fill: none;"/><line x1="841" y1="526" x2="841" y2="526" stroke-width="0" marker-start="url(#my-svg-sequencenumber)"/><text x="841" y="530" font-family="sans-serif" font-size="12px" text-anchor="middle" class="sequenceNumber">6</text><text x="648" y="571" text-anchor="middle" dominant-baseline="middle" alignment-baseline="middle" class="messageText" dy="1em" style="font-size: 16px; font-weight: 400;">Return filled series with imputation_method flags</text><line x1="846" y1="600" x2="456" y2="600" class="messageLine1" data-et="message" data-id="i12" data-from="IM" data-to="PP" stroke-width="2" stroke="none" marker-end="url(#my-svg-arrowhead)" style="stroke-dasharray: 3, 3; fill: none;"/><line x1="849" y1="600" x2="849" y2="600" stroke-width="0" marker-start="url(#my-svg-sequencenumber)"/><text x="849" y="604" font-family="sans-serif" font-size="12px" text-anchor="middle" class="sequenceNumber">7</text><text x="453" y="615" text-anchor="middle" dominant-baseline="middle" alignment-baseline="middle" class="messageText" dy="1em" style="font-size: 16px; font-weight: 400;">Preserve observed-value and source-count masks</text><path d="M 453,644 C 513,634 513,674 453,664" class="messageLine0" data-et="message" data-id="i14" data-from="PP" data-to="PP" stroke-width="2" stroke="none" marker-end="url(#my-svg-arrowhead)" x1="459" style="fill: none;"/><line x1="444" y1="644" x2="444" y2="644" stroke-width="0" marker-start="url(#my-svg-sequencenumber)"/><text x="444" y="648" font-family="sans-serif" font-size="12px" text-anchor="middle" class="sequenceNumber">8</text><text x="775" y="689" text-anchor="middle" dominant-baseline="middle" alignment-baseline="middle" class="messageText" dy="1em" style="font-size: 16px; font-weight: 400;">Send filled series for optional smoothing</text><line x1="459" y1="718" x2="1096" y2="718" class="messageLine0" data-et="message" data-id="i15" data-from="PP" data-to="SF" stroke-width="2" stroke="none" marker-end="url(#my-svg-arrowhead)" style="fill: none;"/><line x1="444" y1="718" x2="444" y2="718" stroke-width="0" marker-start="url(#my-svg-sequencenumber)"/><text x="444" y="722" font-family="sans-serif" font-size="12px" text-anchor="middle" class="sequenceNumber">9</text><text x="1105" y="733" text-anchor="middle" dominant-baseline="middle" alignment-baseline="middle" class="messageText" dy="1em" style="font-size: 16px; font-weight: 400;">Apply Savitzky-Golay filter when configured</text><path d="M 1105,762 C 1165,752 1165,792 1105,782" class="messageLine0" data-et="message" data-id="i18" data-from="SF" data-to="SF" stroke-width="2" stroke="none" marker-end="url(#my-svg-arrowhead)" x1="1111" style="fill: none;"/><line x1="1096" y1="762" x2="1096" y2="762" stroke-width="0" marker-start="url(#my-svg-sequencenumber)"/><text x="1096" y="766" font-family="sans-serif" font-size="12px" text-anchor="middle" class="sequenceNumber">10</text><text x="1284" y="807" text-anchor="middle" dominant-baseline="middle" alignment-baseline="middle" class="messageText" dy="1em" style="font-size: 16px; font-weight: 400;">Return processed series plus smoothing flags</text><line x1="1111" y1="836" x2="1462" y2="836" class="messageLine1" data-et="message" data-id="i19" data-from="SF" data-to="FE" stroke-width="2" stroke="none" marker-end="url(#my-svg-arrowhead)" style="stroke-dasharray: 3, 3; fill: none;"/><line x1="1096" y1="836" x2="1096" y2="836" stroke-width="0" marker-start="url(#my-svg-sequencenumber)"/><text x="1096" y="840" font-family="sans-serif" font-size="12px" text-anchor="middle" class="sequenceNumber">11</text><text x="1471" y="881" text-anchor="middle" dominant-baseline="middle" alignment-baseline="middle" class="messageText" dy="1em" style="font-size: 16px; font-weight: 400;">Add calendar, day-of-year, and cyclical encodings</text><path d="M 1471,910 C 1531,900 1531,940 1471,930" class="messageLine0" data-et="message" data-id="i24" data-from="FE" data-to="FE" stroke-width="2" stroke="none" marker-end="url(#my-svg-arrowhead)" x1="1477" style="fill: none;"/><line x1="1462" y1="910" x2="1462" y2="910" stroke-width="0" marker-start="url(#my-svg-sequencenumber)"/><text x="1462" y="914" font-family="sans-serif" font-size="12px" text-anchor="middle" class="sequenceNumber">12</text><text x="1610" y="955" text-anchor="middle" dominant-baseline="middle" alignment-baseline="middle" class="messageText" dy="1em" style="font-size: 16px; font-weight: 400;">Request model-ready normalization</text><line x1="1477" y1="984" x2="1749" y2="984" class="messageLine0" data-et="message" data-id="i25" data-from="FE" data-to="TR" stroke-width="2" stroke="none" marker-end="url(#my-svg-arrowhead)" style="fill: none;"/><line x1="1462" y1="984" x2="1462" y2="984" stroke-width="0" marker-start="url(#my-svg-sequencenumber)"/><text x="1462" y="988" font-family="sans-serif" font-size="12px" text-anchor="middle" class="sequenceNumber">13</text><text x="1758" y="999" text-anchor="middle" dominant-baseline="middle" alignment-baseline="middle" class="messageText" dy="1em" style="font-size: 16px; font-weight: 400;">Check variance and optional log transform</text><path d="M 1758,1028 C 1818,1018 1818,1058 1758,1048" class="messageLine0" data-et="message" data-id="i28" data-from="TR" data-to="TR" stroke-width="2" stroke="none" marker-end="url(#my-svg-arrowhead)" x1="1764" style="fill: none;"/><line x1="1749" y1="1028" x2="1749" y2="1028" stroke-width="0" marker-start="url(#my-svg-sequencenumber)"/><text x="1749" y="1032" font-family="sans-serif" font-size="12px" text-anchor="middle" class="sequenceNumber">14</text><text x="1946" y="1073" text-anchor="middle" dominant-baseline="middle" alignment-baseline="middle" class="messageText" dy="1em" style="font-size: 16px; font-weight: 400;">Build context window and forecast horizon tensors</text><line x1="1764" y1="1102" x2="2133" y2="1102" class="messageLine0" data-et="message" data-id="i29" data-from="TR" data-to="MI" stroke-width="2" stroke="none" marker-end="url(#my-svg-arrowhead)" style="fill: none;"/><line x1="1749" y1="1102" x2="1749" y2="1102" stroke-width="0" marker-start="url(#my-svg-sequencenumber)"/><text x="1749" y="1106" font-family="sans-serif" font-size="12px" text-anchor="middle" class="sequenceNumber">15</text><text x="2142" y="1117" text-anchor="middle" dominant-baseline="middle" alignment-baseline="middle" class="messageText" dy="1em" style="font-size: 16px; font-weight: 400;">Store model input with provenance and preprocessing masks</text><path d="M 2142,1146 C 2202,1136 2202,1176 2142,1166" class="messageLine0" data-et="message" data-id="i32" data-from="MI" data-to="MI" stroke-width="2" stroke="none" marker-end="url(#my-svg-arrowhead)" x1="2148" style="fill: none;"/><line x1="2133" y1="1146" x2="2133" y2="1146" stroke-width="0" marker-start="url(#my-svg-sequencenumber)"/><text x="2133" y="1150" font-family="sans-serif" font-size="12px" text-anchor="middle" class="sequenceNumber">16</text><style>.actor {
  fill: #e8f1f2 !important;
  stroke: #2f4858 !important;
  stroke-width: 2px !important;
}

.actor-line {
  stroke: #6b7280 !important;
  stroke-width: 1.4px !important;
}

.messageLine0,
.messageLine1 {
  stroke: #33658a !important;
  stroke-width: 2px !important;
}

.messageText,
.loopText,
.labelText,
.actor-box {
  fill: #1f2933 !important;
  font-family: Arial, Helvetica, sans-serif !important;
}

.activation0,
.activation1,
.activation2 {
  fill: #d7eaf3 !important;
  stroke: #33658a !important;
  stroke-width: 1.6px !important;
}

.note {
  fill: #fff3bf !important;
  stroke: #e0a800 !important;
  stroke-width: 1.5px !important;
}

.noteText {
  fill: #4b3b00 !important;
  font-family: Arial, Helvetica, sans-serif !important;
}
</style></svg>