<?xml version="1.0" encoding="utf-8" standalone="no"?>
<!DOCTYPE svg PUBLIC "-//W3C//DTD SVG 1.1//EN"
  "http://www.w3.org/Graphics/SVG/1.1/DTD/svg11.dtd">
<svg xmlns:xlink="http://www.w3.org/1999/xlink" width="684pt" height="382.814437pt" viewBox="0 0 684 382.814437" xmlns="http://www.w3.org/2000/svg" version="1.1">
 <metadata>
  <rdf:RDF xmlns:dc="http://purl.org/dc/elements/1.1/" xmlns:cc="http://creativecommons.org/ns#" xmlns:rdf="http://www.w3.org/1999/02/22-rdf-syntax-ns#">
   <cc:Work>
    <dc:type rdf:resource="http://purl.org/dc/dcmitype/StillImage"/>
    <dc:date>2026-05-30T17:35:54.075704</dc:date>
    <dc:format>image/svg+xml</dc:format>
    <dc:creator>
     <cc:Agent>
      <dc:title>Matplotlib v3.10.9, https://matplotlib.org/</dc:title>
     </cc:Agent>
    </dc:creator>
   </cc:Work>
  </rdf:RDF>
 </metadata>
 <defs>
  <style type="text/css">*{stroke-linejoin: round; stroke-linecap: butt}</style>
 </defs>
 <g id="figure_1">
  <g id="patch_1">
   <path d="M 0 382.814437 
L 684 382.814437 
L 684 0 
L 0 0 
z
" style="fill: #ffffff"/>
  </g>
  <g id="axes_1">
   <g id="patch_2">
    <path d="M 40.68 105.244645 
L 167.904 105.244645 
Q 179.9568 105.244645 179.9568 98.857957 
L 179.9568 42.087398 
Q 179.9568 35.70071 167.904 35.70071 
L 40.68 35.70071 
Q 28.6272 35.70071 28.6272 42.087398 
L 28.6272 98.857957 
Q 28.6272 105.244645 40.68 105.244645 
z
" clip-path="url(#p3772a33cb7)" style="fill: #e8f1f2; stroke: #2f4858; stroke-width: 1.1; stroke-linejoin: miter"/>
   </g>
   <g id="patch_3">
    <path d="M 169.902501 70.472677 
Q 184.64216 70.472677 198.263786 70.472677 
" clip-path="url(#p3772a33cb7)" style="fill: none; stroke: #33658a; stroke-linecap: round"/>
    <path d="M 193.463786 68.072677 
L 198.263786 70.472677 
L 193.463786 72.872677 
z
" clip-path="url(#p3772a33cb7)" style="fill: #33658a; stroke: #33658a; stroke-linecap: round"/>
   </g>
   <g id="patch_4">
    <path d="M 201.384 105.244645 
L 328.608 105.244645 
Q 340.6608 105.244645 340.6608 98.857957 
L 340.6608 42.087398 
Q 340.6608 35.70071 328.608 35.70071 
L 201.384 35.70071 
Q 189.3312 35.70071 189.3312 42.087398 
L 189.3312 98.857957 
Q 189.3312 105.244645 201.384 105.244645 
z
" clip-path="url(#p3772a33cb7)" style="fill: #e8f1f2; stroke: #2f4858; stroke-width: 1.1; stroke-linejoin: miter"/>
   </g>
   <g id="patch_5">
    <path d="M 330.606501 70.472677 
Q 345.34616 70.472677 358.967786 70.472677 
" clip-path="url(#p3772a33cb7)" style="fill: none; stroke: #33658a; stroke-linecap: round"/>
    <path d="M 354.167786 68.072677 
L 358.967786 70.472677 
L 354.167786 72.872677 
z
" clip-path="url(#p3772a33cb7)" style="fill: #33658a; stroke: #33658a; stroke-linecap: round"/>
   </g>
   <g id="patch_6">
    <path d="M 362.088 105.244645 
L 489.312 105.244645 
Q 501.3648 105.244645 501.3648 98.857957 
L 501.3648 42.087398 
Q 501.3648 35.70071 489.312 35.70071 
L 362.088 35.70071 
Q 350.0352 35.70071 350.0352 42.087398 
L 350.0352 98.857957 
Q 350.0352 105.244645 362.088 105.244645 
z
" clip-path="url(#p3772a33cb7)" style="fill: #e8f1f2; stroke: #2f4858; stroke-width: 1.1; stroke-linejoin: miter"/>
   </g>
   <g id="patch_7">
    <path d="M 491.310501 70.472677 
Q 506.05016 70.472677 519.671786 70.472677 
" clip-path="url(#p3772a33cb7)" style="fill: none; stroke: #33658a; stroke-linecap: round"/>
    <path d="M 514.871786 68.072677 
L 519.671786 70.472677 
L 514.871786 72.872677 
z
" clip-path="url(#p3772a33cb7)" style="fill: #33658a; stroke: #33658a; stroke-linecap: round"/>
   </g>
   <g id="patch_8">
    <path d="M 522.792 105.244645 
L 650.016 105.244645 
Q 662.0688 105.244645 662.0688 98.857957 
L 662.0688 42.087398 
Q 662.0688 35.70071 650.016 35.70071 
L 522.792 35.70071 
Q 510.7392 35.70071 510.7392 42.087398 
L 510.7392 98.857957 
Q 510.7392 105.244645 522.792 105.244645 
z
" clip-path="url(#p3772a33cb7)" style="fill: #e8f1f2; stroke: #2f4858; stroke-width: 1.1; stroke-linejoin: miter"/>
   </g>
   <g id="patch_9">
    <path d="M 615.002115 100.138024 
Q 345.895593 324.105499 43.379309 150.088007 
" clip-path="url(#p3772a33cb7)" style="fill: none; stroke: #33658a; stroke-linecap: round"/>
    <path d="M 46.343344 154.561764 
L 43.379309 150.088007 
L 48.736735 150.401033 
z
" clip-path="url(#p3772a33cb7)" style="fill: #33658a; stroke: #33658a; stroke-linecap: round"/>
   </g>
   <g id="patch_10">
    <path d="M 40.68 211.689445 
L 167.904 211.689445 
Q 179.9568 211.689445 179.9568 205.302757 
L 179.9568 148.532197 
Q 179.9568 142.145509 167.904 142.145509 
L 40.68 142.145509 
Q 28.6272 142.145509 28.6272 148.532197 
L 28.6272 205.302757 
Q 28.6272 211.689445 40.68 211.689445 
z
" clip-path="url(#p3772a33cb7)" style="fill: #e8f1f2; stroke: #2f4858; stroke-width: 1.1; stroke-linejoin: miter"/>
   </g>
   <g id="patch_11">
    <path d="M 169.902501 176.917477 
Q 184.64216 176.917477 198.263786 176.917477 
" clip-path="url(#p3772a33cb7)" style="fill: none; stroke: #33658a; stroke-linecap: round"/>
    <path d="M 193.463786 174.517477 
L 198.263786 176.917477 
L 193.463786 179.317477 
z
" clip-path="url(#p3772a33cb7)" style="fill: #33658a; stroke: #33658a; stroke-linecap: round"/>
   </g>
   <g id="patch_12">
    <path d="M 201.384 211.689445 
L 328.608 211.689445 
Q 340.6608 211.689445 340.6608 205.302757 
L 340.6608 148.532197 
Q 340.6608 142.145509 328.608 142.145509 
L 201.384 142.145509 
Q 189.3312 142.145509 189.3312 148.532197 
L 189.3312 205.302757 
Q 189.3312 211.689445 201.384 211.689445 
z
" clip-path="url(#p3772a33cb7)" style="fill: #e8f1f2; stroke: #2f4858; stroke-width: 1.1; stroke-linejoin: miter"/>
   </g>
   <g id="patch_13">
    <path d="M 330.606501 176.917477 
Q 345.34616 176.917477 358.967786 176.917477 
" clip-path="url(#p3772a33cb7)" style="fill: none; stroke: #33658a; stroke-linecap: round"/>
    <path d="M 354.167786 174.517477 
L 358.967786 176.917477 
L 354.167786 179.317477 
z
" clip-path="url(#p3772a33cb7)" style="fill: #33658a; stroke: #33658a; stroke-linecap: round"/>
   </g>
   <g id="patch_14">
    <path d="M 362.088 211.689445 
L 489.312 211.689445 
Q 501.3648 211.689445 501.3648 205.302757 
L 501.3648 148.532197 
Q 501.3648 142.145509 489.312 142.145509 
L 362.088 142.145509 
Q 350.0352 142.145509 350.0352 148.532197 
L 350.0352 205.302757 
Q 350.0352 211.689445 362.088 211.689445 
z
" clip-path="url(#p3772a33cb7)" style="fill: #e8f1f2; stroke: #2f4858; stroke-width: 1.1; stroke-linejoin: miter"/>
   </g>
   <g id="patch_15">
    <path d="M 491.310501 176.917477 
Q 506.05016 176.917477 519.671786 176.917477 
" clip-path="url(#p3772a33cb7)" style="fill: none; stroke: #33658a; stroke-linecap: round"/>
    <path d="M 514.871786 174.517477 
L 519.671786 176.917477 
L 514.871786 179.317477 
z
" clip-path="url(#p3772a33cb7)" style="fill: #33658a; stroke: #33658a; stroke-linecap: round"/>
   </g>
   <g id="patch_16">
    <path d="M 522.792 211.689445 
L 650.016 211.689445 
Q 662.0688 211.689445 662.0688 205.302757 
L 662.0688 148.532197 
Q 662.0688 142.145509 650.016 142.145509 
L 522.792 142.145509 
Q 510.7392 142.145509 510.7392 148.532197 
L 510.7392 205.302757 
Q 510.7392 211.689445 522.792 211.689445 
z
" clip-path="url(#p3772a33cb7)" style="fill: #e8f1f2; stroke: #2f4858; stroke-width: 1.1; stroke-linejoin: miter"/>
   </g>
   <g id="patch_17">
    <path d="M 615.002115 206.582824 
Q 345.895593 430.550299 43.379309 256.532807 
" clip-path="url(#p3772a33cb7)" style="fill: none; stroke: #33658a; stroke-linecap: round"/>
    <path d="M 46.343344 261.006564 
L 43.379309 256.532807 
L 48.736735 256.845833 
z
" clip-path="url(#p3772a33cb7)" style="fill: #33658a; stroke: #33658a; stroke-linecap: round"/>
   </g>
   <g id="patch_18">
    <path d="M 40.68 318.134245 
L 167.904 318.134245 
Q 179.9568 318.134245 179.9568 311.747557 
L 179.9568 254.976997 
Q 179.9568 248.590309 167.904 248.590309 
L 40.68 248.590309 
Q 28.6272 248.590309 28.6272 254.976997 
L 28.6272 311.747557 
Q 28.6272 318.134245 40.68 318.134245 
z
" clip-path="url(#p3772a33cb7)" style="fill: #e8f1f2; stroke: #2f4858; stroke-width: 1.1; stroke-linejoin: miter"/>
   </g>
   <g id="patch_19">
    <path d="M 169.902501 283.362277 
Q 184.64216 283.362277 198.263786 283.362277 
" clip-path="url(#p3772a33cb7)" style="fill: none; stroke: #33658a; stroke-linecap: round"/>
    <path d="M 193.463786 280.962277 
L 198.263786 283.362277 
L 193.463786 285.762277 
z
" clip-path="url(#p3772a33cb7)" style="fill: #33658a; stroke: #33658a; stroke-linecap: round"/>
   </g>
   <g id="patch_20">
    <path d="M 201.384 318.134245 
L 328.608 318.134245 
Q 340.6608 318.134245 340.6608 311.747557 
L 340.6608 254.976997 
Q 340.6608 248.590309 328.608 248.590309 
L 201.384 248.590309 
Q 189.3312 248.590309 189.3312 254.976997 
L 189.3312 311.747557 
Q 189.3312 318.134245 201.384 318.134245 
z
" clip-path="url(#p3772a33cb7)" style="fill: #e8f1f2; stroke: #2f4858; stroke-width: 1.1; stroke-linejoin: miter"/>
   </g>
   <g id="patch_21">
    <path d="M 330.606501 283.362277 
Q 345.34616 283.362277 358.967786 283.362277 
" clip-path="url(#p3772a33cb7)" style="fill: none; stroke: #33658a; stroke-linecap: round"/>
    <path d="M 354.167786 280.962277 
L 358.967786 283.362277 
L 354.167786 285.762277 
z
" clip-path="url(#p3772a33cb7)" style="fill: #33658a; stroke: #33658a; stroke-linecap: round"/>
   </g>
   <g id="patch_22">
    <path d="M 362.088 318.134245 
L 489.312 318.134245 
Q 501.3648 318.134245 501.3648 311.747557 
L 501.3648 254.976997 
Q 501.3648 248.590309 489.312 248.590309 
L 362.088 248.590309 
Q 350.0352 248.590309 350.0352 254.976997 
L 350.0352 311.747557 
Q 350.0352 318.134245 362.088 318.134245 
z
" clip-path="url(#p3772a33cb7)" style="fill: #e8f1f2; stroke: #2f4858; stroke-width: 1.1; stroke-linejoin: miter"/>
   </g>
   <g id="patch_23">
    <path d="M 491.310501 283.362277 
Q 506.05016 283.362277 519.671786 283.362277 
" clip-path="url(#p3772a33cb7)" style="fill: none; stroke: #33658a; stroke-linecap: round"/>
    <path d="M 514.871786 280.962277 
L 519.671786 283.362277 
L 514.871786 285.762277 
z
" clip-path="url(#p3772a33cb7)" style="fill: #33658a; stroke: #33658a; stroke-linecap: round"/>
   </g>
   <g id="patch_24">
    <path d="M 522.792 318.134245 
L 650.016 318.134245 
Q 662.0688 318.134245 662.0688 311.747557 
L 662.0688 254.976997 
Q 662.0688 248.590309 650.016 248.590309 
L 522.792 248.590309 
Q 510.7392 248.590309 510.7392 254.976997 
L 510.7392 311.747557 
Q 510.7392 318.134245 522.792 318.134245 
z
" clip-path="url(#p3772a33cb7)" style="fill: #e8f1f2; stroke: #2f4858; stroke-width: 1.1; stroke-linejoin: miter"/>
   </g>
   <g id="text_1">
    <!-- Raw acquisition -->
    <g transform="translate(68.993719 67.746135) scale(0.09 -0.09)">
     <defs>
      <path id="DejaVuSans-52" d="M 2841 2188 
Q 3044 2119 3236 1894 
Q 3428 1669 3622 1275 
L 4263 0 
L 3584 0 
L 2988 1197 
Q 2756 1666 2539 1819 
Q 2322 1972 1947 1972 
L 1259 1972 
L 1259 0 
L 628 0 
L 628 4666 
L 2053 4666 
Q 2853 4666 3247 4331 
Q 3641 3997 3641 3322 
Q 3641 2881 3436 2590 
Q 3231 2300 2841 2188 
z
M 1259 4147 
L 1259 2491 
L 2053 2491 
Q 2509 2491 2742 2702 
Q 2975 2913 2975 3322 
Q 2975 3731 2742 3939 
Q 2509 4147 2053 4147 
L 1259 4147 
z
" transform="scale(0.015625)"/>
      <path id="DejaVuSans-61" d="M 2194 1759 
Q 1497 1759 1228 1600 
Q 959 1441 959 1056 
Q 959 750 1161 570 
Q 1363 391 1709 391 
Q 2188 391 2477 730 
Q 2766 1069 2766 1631 
L 2766 1759 
L 2194 1759 
z
M 3341 1997 
L 3341 0 
L 2766 0 
L 2766 531 
Q 2569 213 2275 61 
Q 1981 -91 1556 -91 
Q 1019 -91 701 211 
Q 384 513 384 1019 
Q 384 1609 779 1909 
Q 1175 2209 1959 2209 
L 2766 2209 
L 2766 2266 
Q 2766 2663 2505 2880 
Q 2244 3097 1772 3097 
Q 1472 3097 1187 3025 
Q 903 2953 641 2809 
L 641 3341 
Q 956 3463 1253 3523 
Q 1550 3584 1831 3584 
Q 2591 3584 2966 3190 
Q 3341 2797 3341 1997 
z
" transform="scale(0.015625)"/>
      <path id="DejaVuSans-77" d="M 269 3500 
L 844 3500 
L 1563 769 
L 2278 3500 
L 2956 3500 
L 3675 769 
L 4391 3500 
L 4966 3500 
L 4050 0 
L 3372 0 
L 2619 2869 
L 1863 0 
L 1184 0 
L 269 3500 
z
" transform="scale(0.015625)"/>
      <path id="DejaVuSans-20" transform="scale(0.015625)"/>
      <path id="DejaVuSans-63" d="M 3122 3366 
L 3122 2828 
Q 2878 2963 2633 3030 
Q 2388 3097 2138 3097 
Q 1578 3097 1268 2742 
Q 959 2388 959 1747 
Q 959 1106 1268 751 
Q 1578 397 2138 397 
Q 2388 397 2633 464 
Q 2878 531 3122 666 
L 3122 134 
Q 2881 22 2623 -34 
Q 2366 -91 2075 -91 
Q 1284 -91 818 406 
Q 353 903 353 1747 
Q 353 2603 823 3093 
Q 1294 3584 2113 3584 
Q 2378 3584 2631 3529 
Q 2884 3475 3122 3366 
z
" transform="scale(0.015625)"/>
      <path id="DejaVuSans-71" d="M 947 1747 
Q 947 1113 1208 752 
Q 1469 391 1925 391 
Q 2381 391 2643 752 
Q 2906 1113 2906 1747 
Q 2906 2381 2643 2742 
Q 2381 3103 1925 3103 
Q 1469 3103 1208 2742 
Q 947 2381 947 1747 
z
M 2906 525 
Q 2725 213 2448 61 
Q 2172 -91 1784 -91 
Q 1150 -91 751 415 
Q 353 922 353 1747 
Q 353 2572 751 3078 
Q 1150 3584 1784 3584 
Q 2172 3584 2448 3432 
Q 2725 3281 2906 2969 
L 2906 3500 
L 3481 3500 
L 3481 -1331 
L 2906 -1331 
L 2906 525 
z
" transform="scale(0.015625)"/>
      <path id="DejaVuSans-75" d="M 544 1381 
L 544 3500 
L 1119 3500 
L 1119 1403 
Q 1119 906 1312 657 
Q 1506 409 1894 409 
Q 2359 409 2629 706 
Q 2900 1003 2900 1516 
L 2900 3500 
L 3475 3500 
L 3475 0 
L 2900 0 
L 2900 538 
Q 2691 219 2414 64 
Q 2138 -91 1772 -91 
Q 1169 -91 856 284 
Q 544 659 544 1381 
z
M 1991 3584 
L 1991 3584 
z
" transform="scale(0.015625)"/>
      <path id="DejaVuSans-69" d="M 603 3500 
L 1178 3500 
L 1178 0 
L 603 0 
L 603 3500 
z
M 603 4863 
L 1178 4863 
L 1178 4134 
L 603 4134 
L 603 4863 
z
" transform="scale(0.015625)"/>
      <path id="DejaVuSans-73" d="M 2834 3397 
L 2834 2853 
Q 2591 2978 2328 3040 
Q 2066 3103 1784 3103 
Q 1356 3103 1142 2972 
Q 928 2841 928 2578 
Q 928 2378 1081 2264 
Q 1234 2150 1697 2047 
L 1894 2003 
Q 2506 1872 2764 1633 
Q 3022 1394 3022 966 
Q 3022 478 2636 193 
Q 2250 -91 1575 -91 
Q 1294 -91 989 -36 
Q 684 19 347 128 
L 347 722 
Q 666 556 975 473 
Q 1284 391 1588 391 
Q 1994 391 2212 530 
Q 2431 669 2431 922 
Q 2431 1156 2273 1281 
Q 2116 1406 1581 1522 
L 1381 1569 
Q 847 1681 609 1914 
Q 372 2147 372 2553 
Q 372 3047 722 3315 
Q 1072 3584 1716 3584 
Q 2034 3584 2315 3537 
Q 2597 3491 2834 3397 
z
" transform="scale(0.015625)"/>
      <path id="DejaVuSans-74" d="M 1172 4494 
L 1172 3500 
L 2356 3500 
L 2356 3053 
L 1172 3053 
L 1172 1153 
Q 1172 725 1289 603 
Q 1406 481 1766 481 
L 2356 481 
L 2356 0 
L 1766 0 
Q 1100 0 847 248 
Q 594 497 594 1153 
L 594 3053 
L 172 3053 
L 172 3500 
L 594 3500 
L 594 4494 
L 1172 4494 
z
" transform="scale(0.015625)"/>
      <path id="DejaVuSans-6f" d="M 1959 3097 
Q 1497 3097 1228 2736 
Q 959 2375 959 1747 
Q 959 1119 1226 758 
Q 1494 397 1959 397 
Q 2419 397 2687 759 
Q 2956 1122 2956 1747 
Q 2956 2369 2687 2733 
Q 2419 3097 1959 3097 
z
M 1959 3584 
Q 2709 3584 3137 3096 
Q 3566 2609 3566 1747 
Q 3566 888 3137 398 
Q 2709 -91 1959 -91 
Q 1206 -91 779 398 
Q 353 888 353 1747 
Q 353 2609 779 3096 
Q 1206 3584 1959 3584 
z
" transform="scale(0.015625)"/>
      <path id="DejaVuSans-6e" d="M 3513 2113 
L 3513 0 
L 2938 0 
L 2938 2094 
Q 2938 2591 2744 2837 
Q 2550 3084 2163 3084 
Q 1697 3084 1428 2787 
Q 1159 2491 1159 1978 
L 1159 0 
L 581 0 
L 581 3500 
L 1159 3500 
L 1159 2956 
Q 1366 3272 1645 3428 
Q 1925 3584 2291 3584 
Q 2894 3584 3203 3211 
Q 3513 2838 3513 2113 
z
" transform="scale(0.015625)"/>
     </defs>
     <use xlink:href="#DejaVuSans-52"/>
     <use xlink:href="#DejaVuSans-61" transform="translate(67.232422 0)"/>
     <use xlink:href="#DejaVuSans-77" transform="translate(128.511719 0)"/>
     <use xlink:href="#DejaVuSans-20" transform="translate(210.298828 0)"/>
     <use xlink:href="#DejaVuSans-61" transform="translate(242.085938 0)"/>
     <use xlink:href="#DejaVuSans-63" transform="translate(303.365234 0)"/>
     <use xlink:href="#DejaVuSans-71" transform="translate(358.345703 0)"/>
     <use xlink:href="#DejaVuSans-75" transform="translate(421.822266 0)"/>
     <use xlink:href="#DejaVuSans-69" transform="translate(485.201172 0)"/>
     <use xlink:href="#DejaVuSans-73" transform="translate(512.984375 0)"/>
     <use xlink:href="#DejaVuSans-69" transform="translate(565.083984 0)"/>
     <use xlink:href="#DejaVuSans-74" transform="translate(592.867188 0)"/>
     <use xlink:href="#DejaVuSans-69" transform="translate(632.076172 0)"/>
     <use xlink:href="#DejaVuSans-6f" transform="translate(659.859375 0)"/>
     <use xlink:href="#DejaVuSans-6e" transform="translate(721.041016 0)"/>
    </g>
    <!-- station spreadsheets -->
    <g transform="translate(57.200906 78.166095) scale(0.09 -0.09)">
     <defs>
      <path id="DejaVuSans-70" d="M 1159 525 
L 1159 -1331 
L 581 -1331 
L 581 3500 
L 1159 3500 
L 1159 2969 
Q 1341 3281 1617 3432 
Q 1894 3584 2278 3584 
Q 2916 3584 3314 3078 
Q 3713 2572 3713 1747 
Q 3713 922 3314 415 
Q 2916 -91 2278 -91 
Q 1894 -91 1617 61 
Q 1341 213 1159 525 
z
M 3116 1747 
Q 3116 2381 2855 2742 
Q 2594 3103 2138 3103 
Q 1681 3103 1420 2742 
Q 1159 2381 1159 1747 
Q 1159 1113 1420 752 
Q 1681 391 2138 391 
Q 2594 391 2855 752 
Q 3116 1113 3116 1747 
z
" transform="scale(0.015625)"/>
      <path id="DejaVuSans-72" d="M 2631 2963 
Q 2534 3019 2420 3045 
Q 2306 3072 2169 3072 
Q 1681 3072 1420 2755 
Q 1159 2438 1159 1844 
L 1159 0 
L 581 0 
L 581 3500 
L 1159 3500 
L 1159 2956 
Q 1341 3275 1631 3429 
Q 1922 3584 2338 3584 
Q 2397 3584 2469 3576 
Q 2541 3569 2628 3553 
L 2631 2963 
z
" transform="scale(0.015625)"/>
      <path id="DejaVuSans-65" d="M 3597 1894 
L 3597 1613 
L 953 1613 
Q 991 1019 1311 708 
Q 1631 397 2203 397 
Q 2534 397 2845 478 
Q 3156 559 3463 722 
L 3463 178 
Q 3153 47 2828 -22 
Q 2503 -91 2169 -91 
Q 1331 -91 842 396 
Q 353 884 353 1716 
Q 353 2575 817 3079 
Q 1281 3584 2069 3584 
Q 2775 3584 3186 3129 
Q 3597 2675 3597 1894 
z
M 3022 2063 
Q 3016 2534 2758 2815 
Q 2500 3097 2075 3097 
Q 1594 3097 1305 2825 
Q 1016 2553 972 2059 
L 3022 2063 
z
" transform="scale(0.015625)"/>
      <path id="DejaVuSans-64" d="M 2906 2969 
L 2906 4863 
L 3481 4863 
L 3481 0 
L 2906 0 
L 2906 525 
Q 2725 213 2448 61 
Q 2172 -91 1784 -91 
Q 1150 -91 751 415 
Q 353 922 353 1747 
Q 353 2572 751 3078 
Q 1150 3584 1784 3584 
Q 2172 3584 2448 3432 
Q 2725 3281 2906 2969 
z
M 947 1747 
Q 947 1113 1208 752 
Q 1469 391 1925 391 
Q 2381 391 2643 752 
Q 2906 1113 2906 1747 
Q 2906 2381 2643 2742 
Q 2381 3103 1925 3103 
Q 1469 3103 1208 2742 
Q 947 2381 947 1747 
z
" transform="scale(0.015625)"/>
      <path id="DejaVuSans-68" d="M 3513 2113 
L 3513 0 
L 2938 0 
L 2938 2094 
Q 2938 2591 2744 2837 
Q 2550 3084 2163 3084 
Q 1697 3084 1428 2787 
Q 1159 2491 1159 1978 
L 1159 0 
L 581 0 
L 581 4863 
L 1159 4863 
L 1159 2956 
Q 1366 3272 1645 3428 
Q 1925 3584 2291 3584 
Q 2894 3584 3203 3211 
Q 3513 2838 3513 2113 
z
" transform="scale(0.015625)"/>
     </defs>
     <use xlink:href="#DejaVuSans-73"/>
     <use xlink:href="#DejaVuSans-74" transform="translate(52.099609 0)"/>
     <use xlink:href="#DejaVuSans-61" transform="translate(91.308594 0)"/>
     <use xlink:href="#DejaVuSans-74" transform="translate(152.587891 0)"/>
     <use xlink:href="#DejaVuSans-69" transform="translate(191.796875 0)"/>
     <use xlink:href="#DejaVuSans-6f" transform="translate(219.580078 0)"/>
     <use xlink:href="#DejaVuSans-6e" transform="translate(280.761719 0)"/>
     <use xlink:href="#DejaVuSans-20" transform="translate(344.140625 0)"/>
     <use xlink:href="#DejaVuSans-73" transform="translate(375.927734 0)"/>
     <use xlink:href="#DejaVuSans-70" transform="translate(428.027344 0)"/>
     <use xlink:href="#DejaVuSans-72" transform="translate(491.503906 0)"/>
     <use xlink:href="#DejaVuSans-65" transform="translate(530.367188 0)"/>
     <use xlink:href="#DejaVuSans-61" transform="translate(591.890625 0)"/>
     <use xlink:href="#DejaVuSans-64" transform="translate(653.169922 0)"/>
     <use xlink:href="#DejaVuSans-73" transform="translate(716.646484 0)"/>
     <use xlink:href="#DejaVuSans-68" transform="translate(768.746094 0)"/>
     <use xlink:href="#DejaVuSans-65" transform="translate(832.125 0)"/>
     <use xlink:href="#DejaVuSans-65" transform="translate(893.648438 0)"/>
     <use xlink:href="#DejaVuSans-74" transform="translate(955.171875 0)"/>
     <use xlink:href="#DejaVuSans-73" transform="translate(994.380859 0)"/>
    </g>
   </g>
   <g id="text_2">
    <!-- Data inventory -->
    <g transform="translate(231.404203 67.746135) scale(0.09 -0.09)">
     <defs>
      <path id="DejaVuSans-44" d="M 1259 4147 
L 1259 519 
L 2022 519 
Q 2988 519 3436 956 
Q 3884 1394 3884 2338 
Q 3884 3275 3436 3711 
Q 2988 4147 2022 4147 
L 1259 4147 
z
M 628 4666 
L 1925 4666 
Q 3281 4666 3915 4102 
Q 4550 3538 4550 2338 
Q 4550 1131 3912 565 
Q 3275 0 1925 0 
L 628 0 
L 628 4666 
z
" transform="scale(0.015625)"/>
      <path id="DejaVuSans-76" d="M 191 3500 
L 800 3500 
L 1894 563 
L 2988 3500 
L 3597 3500 
L 2284 0 
L 1503 0 
L 191 3500 
z
" transform="scale(0.015625)"/>
      <path id="DejaVuSans-79" d="M 2059 -325 
Q 1816 -950 1584 -1140 
Q 1353 -1331 966 -1331 
L 506 -1331 
L 506 -850 
L 844 -850 
Q 1081 -850 1212 -737 
Q 1344 -625 1503 -206 
L 1606 56 
L 191 3500 
L 800 3500 
L 1894 763 
L 2988 3500 
L 3597 3500 
L 2059 -325 
z
" transform="scale(0.015625)"/>
     </defs>
     <use xlink:href="#DejaVuSans-44"/>
     <use xlink:href="#DejaVuSans-61" transform="translate(77.001953 0)"/>
     <use xlink:href="#DejaVuSans-74" transform="translate(138.28125 0)"/>
     <use xlink:href="#DejaVuSans-61" transform="translate(177.490234 0)"/>
     <use xlink:href="#DejaVuSans-20" transform="translate(238.769531 0)"/>
     <use xlink:href="#DejaVuSans-69" transform="translate(270.556641 0)"/>
     <use xlink:href="#DejaVuSans-6e" transform="translate(298.339844 0)"/>
     <use xlink:href="#DejaVuSans-76" transform="translate(361.71875 0)"/>
     <use xlink:href="#DejaVuSans-65" transform="translate(420.898438 0)"/>
     <use xlink:href="#DejaVuSans-6e" transform="translate(482.421875 0)"/>
     <use xlink:href="#DejaVuSans-74" transform="translate(545.800781 0)"/>
     <use xlink:href="#DejaVuSans-6f" transform="translate(585.009766 0)"/>
     <use xlink:href="#DejaVuSans-72" transform="translate(646.191406 0)"/>
     <use xlink:href="#DejaVuSans-79" transform="translate(687.304688 0)"/>
    </g>
    <!-- hashes + date coverage -->
    <g transform="translate(209.975062 78.166095) scale(0.09 -0.09)">
     <defs>
      <path id="DejaVuSans-2b" d="M 2944 4013 
L 2944 2272 
L 4684 2272 
L 4684 1741 
L 2944 1741 
L 2944 0 
L 2419 0 
L 2419 1741 
L 678 1741 
L 678 2272 
L 2419 2272 
L 2419 4013 
L 2944 4013 
z
" transform="scale(0.015625)"/>
      <path id="DejaVuSans-67" d="M 2906 1791 
Q 2906 2416 2648 2759 
Q 2391 3103 1925 3103 
Q 1463 3103 1205 2759 
Q 947 2416 947 1791 
Q 947 1169 1205 825 
Q 1463 481 1925 481 
Q 2391 481 2648 825 
Q 2906 1169 2906 1791 
z
M 3481 434 
Q 3481 -459 3084 -895 
Q 2688 -1331 1869 -1331 
Q 1566 -1331 1297 -1286 
Q 1028 -1241 775 -1147 
L 775 -588 
Q 1028 -725 1275 -790 
Q 1522 -856 1778 -856 
Q 2344 -856 2625 -561 
Q 2906 -266 2906 331 
L 2906 616 
Q 2728 306 2450 153 
Q 2172 0 1784 0 
Q 1141 0 747 490 
Q 353 981 353 1791 
Q 353 2603 747 3093 
Q 1141 3584 1784 3584 
Q 2172 3584 2450 3431 
Q 2728 3278 2906 2969 
L 2906 3500 
L 3481 3500 
L 3481 434 
z
" transform="scale(0.015625)"/>
     </defs>
     <use xlink:href="#DejaVuSans-68"/>
     <use xlink:href="#DejaVuSans-61" transform="translate(63.378906 0)"/>
     <use xlink:href="#DejaVuSans-73" transform="translate(124.658203 0)"/>
     <use xlink:href="#DejaVuSans-68" transform="translate(176.757812 0)"/>
     <use xlink:href="#DejaVuSans-65" transform="translate(240.136719 0)"/>
     <use xlink:href="#DejaVuSans-73" transform="translate(301.660156 0)"/>
     <use xlink:href="#DejaVuSans-20" transform="translate(353.759766 0)"/>
     <use xlink:href="#DejaVuSans-2b" transform="translate(385.546875 0)"/>
     <use xlink:href="#DejaVuSans-20" transform="translate(469.335938 0)"/>
     <use xlink:href="#DejaVuSans-64" transform="translate(501.123047 0)"/>
     <use xlink:href="#DejaVuSans-61" transform="translate(564.599609 0)"/>
     <use xlink:href="#DejaVuSans-74" transform="translate(625.878906 0)"/>
     <use xlink:href="#DejaVuSans-65" transform="translate(665.087891 0)"/>
     <use xlink:href="#DejaVuSans-20" transform="translate(726.611328 0)"/>
     <use xlink:href="#DejaVuSans-63" transform="translate(758.398438 0)"/>
     <use xlink:href="#DejaVuSans-6f" transform="translate(813.378906 0)"/>
     <use xlink:href="#DejaVuSans-76" transform="translate(874.560547 0)"/>
     <use xlink:href="#DejaVuSans-65" transform="translate(933.740234 0)"/>
     <use xlink:href="#DejaVuSans-72" transform="translate(995.263672 0)"/>
     <use xlink:href="#DejaVuSans-61" transform="translate(1036.376953 0)"/>
     <use xlink:href="#DejaVuSans-67" transform="translate(1097.65625 0)"/>
     <use xlink:href="#DejaVuSans-65" transform="translate(1161.132812 0)"/>
    </g>
   </g>
   <g id="text_3">
    <!-- Canonical table -->
    <g transform="translate(390.782812 67.746135) scale(0.09 -0.09)">
     <defs>
      <path id="DejaVuSans-43" d="M 4122 4306 
L 4122 3641 
Q 3803 3938 3442 4084 
Q 3081 4231 2675 4231 
Q 1875 4231 1450 3742 
Q 1025 3253 1025 2328 
Q 1025 1406 1450 917 
Q 1875 428 2675 428 
Q 3081 428 3442 575 
Q 3803 722 4122 1019 
L 4122 359 
Q 3791 134 3420 21 
Q 3050 -91 2638 -91 
Q 1578 -91 968 557 
Q 359 1206 359 2328 
Q 359 3453 968 4101 
Q 1578 4750 2638 4750 
Q 3056 4750 3426 4639 
Q 3797 4528 4122 4306 
z
" transform="scale(0.015625)"/>
      <path id="DejaVuSans-6c" d="M 603 4863 
L 1178 4863 
L 1178 0 
L 603 0 
L 603 4863 
z
" transform="scale(0.015625)"/>
      <path id="DejaVuSans-62" d="M 3116 1747 
Q 3116 2381 2855 2742 
Q 2594 3103 2138 3103 
Q 1681 3103 1420 2742 
Q 1159 2381 1159 1747 
Q 1159 1113 1420 752 
Q 1681 391 2138 391 
Q 2594 391 2855 752 
Q 3116 1113 3116 1747 
z
M 1159 2969 
Q 1341 3281 1617 3432 
Q 1894 3584 2278 3584 
Q 2916 3584 3314 3078 
Q 3713 2572 3713 1747 
Q 3713 922 3314 415 
Q 2916 -91 2278 -91 
Q 1894 -91 1617 61 
Q 1341 213 1159 525 
L 1159 0 
L 581 0 
L 581 4863 
L 1159 4863 
L 1159 2969 
z
" transform="scale(0.015625)"/>
     </defs>
     <use xlink:href="#DejaVuSans-43"/>
     <use xlink:href="#DejaVuSans-61" transform="translate(69.824219 0)"/>
     <use xlink:href="#DejaVuSans-6e" transform="translate(131.103516 0)"/>
     <use xlink:href="#DejaVuSans-6f" transform="translate(194.482422 0)"/>
     <use xlink:href="#DejaVuSans-6e" transform="translate(255.664062 0)"/>
     <use xlink:href="#DejaVuSans-69" transform="translate(319.042969 0)"/>
     <use xlink:href="#DejaVuSans-63" transform="translate(346.826172 0)"/>
     <use xlink:href="#DejaVuSans-61" transform="translate(401.806641 0)"/>
     <use xlink:href="#DejaVuSans-6c" transform="translate(463.085938 0)"/>
     <use xlink:href="#DejaVuSans-20" transform="translate(490.869141 0)"/>
     <use xlink:href="#DejaVuSans-74" transform="translate(522.65625 0)"/>
     <use xlink:href="#DejaVuSans-61" transform="translate(561.865234 0)"/>
     <use xlink:href="#DejaVuSans-62" transform="translate(623.144531 0)"/>
     <use xlink:href="#DejaVuSans-6c" transform="translate(686.621094 0)"/>
     <use xlink:href="#DejaVuSans-65" transform="translate(714.404297 0)"/>
    </g>
    <!-- station/date/variable/value -->
    <g transform="translate(365.072344 78.166095) scale(0.09 -0.09)">
     <defs>
      <path id="DejaVuSans-2f" d="M 1625 4666 
L 2156 4666 
L 531 -594 
L 0 -594 
L 1625 4666 
z
" transform="scale(0.015625)"/>
     </defs>
     <use xlink:href="#DejaVuSans-73"/>
     <use xlink:href="#DejaVuSans-74" transform="translate(52.099609 0)"/>
     <use xlink:href="#DejaVuSans-61" transform="translate(91.308594 0)"/>
     <use xlink:href="#DejaVuSans-74" transform="translate(152.587891 0)"/>
     <use xlink:href="#DejaVuSans-69" transform="translate(191.796875 0)"/>
     <use xlink:href="#DejaVuSans-6f" transform="translate(219.580078 0)"/>
     <use xlink:href="#DejaVuSans-6e" transform="translate(280.761719 0)"/>
     <use xlink:href="#DejaVuSans-2f" transform="translate(344.140625 0)"/>
     <use xlink:href="#DejaVuSans-64" transform="translate(377.832031 0)"/>
     <use xlink:href="#DejaVuSans-61" transform="translate(441.308594 0)"/>
     <use xlink:href="#DejaVuSans-74" transform="translate(502.587891 0)"/>
     <use xlink:href="#DejaVuSans-65" transform="translate(541.796875 0)"/>
     <use xlink:href="#DejaVuSans-2f" transform="translate(603.320312 0)"/>
     <use xlink:href="#DejaVuSans-76" transform="translate(637.011719 0)"/>
     <use xlink:href="#DejaVuSans-61" transform="translate(696.191406 0)"/>
     <use xlink:href="#DejaVuSans-72" transform="translate(757.470703 0)"/>
     <use xlink:href="#DejaVuSans-69" transform="translate(798.583984 0)"/>
     <use xlink:href="#DejaVuSans-61" transform="translate(826.367188 0)"/>
     <use xlink:href="#DejaVuSans-62" transform="translate(887.646484 0)"/>
     <use xlink:href="#DejaVuSans-6c" transform="translate(951.123047 0)"/>
     <use xlink:href="#DejaVuSans-65" transform="translate(978.90625 0)"/>
     <use xlink:href="#DejaVuSans-2f" transform="translate(1040.429688 0)"/>
     <use xlink:href="#DejaVuSans-76" transform="translate(1074.121094 0)"/>
     <use xlink:href="#DejaVuSans-61" transform="translate(1133.300781 0)"/>
     <use xlink:href="#DejaVuSans-6c" transform="translate(1194.580078 0)"/>
     <use xlink:href="#DejaVuSans-75" transform="translate(1222.363281 0)"/>
     <use xlink:href="#DejaVuSans-65" transform="translate(1285.742188 0)"/>
    </g>
   </g>
   <g id="text_4">
    <!-- Quality validation -->
    <g transform="translate(546.738609 67.746135) scale(0.09 -0.09)">
     <defs>
      <path id="DejaVuSans-51" d="M 2522 4238 
Q 1834 4238 1429 3725 
Q 1025 3213 1025 2328 
Q 1025 1447 1429 934 
Q 1834 422 2522 422 
Q 3209 422 3611 934 
Q 4013 1447 4013 2328 
Q 4013 3213 3611 3725 
Q 3209 4238 2522 4238 
z
M 3406 84 
L 4238 -825 
L 3475 -825 
L 2784 -78 
Q 2681 -84 2626 -87 
Q 2572 -91 2522 -91 
Q 1538 -91 948 567 
Q 359 1225 359 2328 
Q 359 3434 948 4092 
Q 1538 4750 2522 4750 
Q 3503 4750 4090 4092 
Q 4678 3434 4678 2328 
Q 4678 1516 4351 937 
Q 4025 359 3406 84 
z
" transform="scale(0.015625)"/>
     </defs>
     <use xlink:href="#DejaVuSans-51"/>
     <use xlink:href="#DejaVuSans-75" transform="translate(78.710938 0)"/>
     <use xlink:href="#DejaVuSans-61" transform="translate(142.089844 0)"/>
     <use xlink:href="#DejaVuSans-6c" transform="translate(203.369141 0)"/>
     <use xlink:href="#DejaVuSans-69" transform="translate(231.152344 0)"/>
     <use xlink:href="#DejaVuSans-74" transform="translate(258.935547 0)"/>
     <use xlink:href="#DejaVuSans-79" transform="translate(298.144531 0)"/>
     <use xlink:href="#DejaVuSans-20" transform="translate(357.324219 0)"/>
     <use xlink:href="#DejaVuSans-76" transform="translate(389.111328 0)"/>
     <use xlink:href="#DejaVuSans-61" transform="translate(448.291016 0)"/>
     <use xlink:href="#DejaVuSans-6c" transform="translate(509.570312 0)"/>
     <use xlink:href="#DejaVuSans-69" transform="translate(537.353516 0)"/>
     <use xlink:href="#DejaVuSans-64" transform="translate(565.136719 0)"/>
     <use xlink:href="#DejaVuSans-61" transform="translate(628.613281 0)"/>
     <use xlink:href="#DejaVuSans-74" transform="translate(689.892578 0)"/>
     <use xlink:href="#DejaVuSans-69" transform="translate(729.101562 0)"/>
     <use xlink:href="#DejaVuSans-6f" transform="translate(756.884766 0)"/>
     <use xlink:href="#DejaVuSans-6e" transform="translate(818.066406 0)"/>
    </g>
    <!-- units + plausibility flags -->
    <g transform="translate(532.141734 78.166095) scale(0.09 -0.09)">
     <defs>
      <path id="DejaVuSans-66" d="M 2375 4863 
L 2375 4384 
L 1825 4384 
Q 1516 4384 1395 4259 
Q 1275 4134 1275 3809 
L 1275 3500 
L 2222 3500 
L 2222 3053 
L 1275 3053 
L 1275 0 
L 697 0 
L 697 3053 
L 147 3053 
L 147 3500 
L 697 3500 
L 697 3744 
Q 697 4328 969 4595 
Q 1241 4863 1831 4863 
L 2375 4863 
z
" transform="scale(0.015625)"/>
     </defs>
     <use xlink:href="#DejaVuSans-75"/>
     <use xlink:href="#DejaVuSans-6e" transform="translate(63.378906 0)"/>
     <use xlink:href="#DejaVuSans-69" transform="translate(126.757812 0)"/>
     <use xlink:href="#DejaVuSans-74" transform="translate(154.541016 0)"/>
     <use xlink:href="#DejaVuSans-73" transform="translate(193.75 0)"/>
     <use xlink:href="#DejaVuSans-20" transform="translate(245.849609 0)"/>
     <use xlink:href="#DejaVuSans-2b" transform="translate(277.636719 0)"/>
     <use xlink:href="#DejaVuSans-20" transform="translate(361.425781 0)"/>
     <use xlink:href="#DejaVuSans-70" transform="translate(393.212891 0)"/>
     <use xlink:href="#DejaVuSans-6c" transform="translate(456.689453 0)"/>
     <use xlink:href="#DejaVuSans-61" transform="translate(484.472656 0)"/>
     <use xlink:href="#DejaVuSans-75" transform="translate(545.751953 0)"/>
     <use xlink:href="#DejaVuSans-73" transform="translate(609.130859 0)"/>
     <use xlink:href="#DejaVuSans-69" transform="translate(661.230469 0)"/>
     <use xlink:href="#DejaVuSans-62" transform="translate(689.013672 0)"/>
     <use xlink:href="#DejaVuSans-69" transform="translate(752.490234 0)"/>
     <use xlink:href="#DejaVuSans-6c" transform="translate(780.273438 0)"/>
     <use xlink:href="#DejaVuSans-69" transform="translate(808.056641 0)"/>
     <use xlink:href="#DejaVuSans-74" transform="translate(835.839844 0)"/>
     <use xlink:href="#DejaVuSans-79" transform="translate(875.048828 0)"/>
     <use xlink:href="#DejaVuSans-20" transform="translate(934.228516 0)"/>
     <use xlink:href="#DejaVuSans-66" transform="translate(966.015625 0)"/>
     <use xlink:href="#DejaVuSans-6c" transform="translate(1001.220703 0)"/>
     <use xlink:href="#DejaVuSans-61" transform="translate(1029.003906 0)"/>
     <use xlink:href="#DejaVuSans-67" transform="translate(1090.283203 0)"/>
     <use xlink:href="#DejaVuSans-73" transform="translate(1153.759766 0)"/>
    </g>
   </g>
   <g id="text_5">
    <!-- Daily Chl-a series -->
    <g transform="translate(65.093484 174.190935) scale(0.09 -0.09)">
     <defs>
      <path id="DejaVuSans-2d" d="M 313 2009 
L 1997 2009 
L 1997 1497 
L 313 1497 
L 313 2009 
z
" transform="scale(0.015625)"/>
     </defs>
     <use xlink:href="#DejaVuSans-44"/>
     <use xlink:href="#DejaVuSans-61" transform="translate(77.001953 0)"/>
     <use xlink:href="#DejaVuSans-69" transform="translate(138.28125 0)"/>
     <use xlink:href="#DejaVuSans-6c" transform="translate(166.064453 0)"/>
     <use xlink:href="#DejaVuSans-79" transform="translate(193.847656 0)"/>
     <use xlink:href="#DejaVuSans-20" transform="translate(253.027344 0)"/>
     <use xlink:href="#DejaVuSans-43" transform="translate(284.814453 0)"/>
     <use xlink:href="#DejaVuSans-68" transform="translate(354.638672 0)"/>
     <use xlink:href="#DejaVuSans-6c" transform="translate(418.017578 0)"/>
     <use xlink:href="#DejaVuSans-2d" transform="translate(445.800781 0)"/>
     <use xlink:href="#DejaVuSans-61" transform="translate(481.884766 0)"/>
     <use xlink:href="#DejaVuSans-20" transform="translate(543.164062 0)"/>
     <use xlink:href="#DejaVuSans-73" transform="translate(574.951172 0)"/>
     <use xlink:href="#DejaVuSans-65" transform="translate(627.050781 0)"/>
     <use xlink:href="#DejaVuSans-72" transform="translate(688.574219 0)"/>
     <use xlink:href="#DejaVuSans-69" transform="translate(729.6875 0)"/>
     <use xlink:href="#DejaVuSans-65" transform="translate(757.470703 0)"/>
     <use xlink:href="#DejaVuSans-73" transform="translate(818.994141 0)"/>
    </g>
    <!-- observed/imputed masks -->
    <g transform="translate(47.316375 184.610895) scale(0.09 -0.09)">
     <defs>
      <path id="DejaVuSans-6d" d="M 3328 2828 
Q 3544 3216 3844 3400 
Q 4144 3584 4550 3584 
Q 5097 3584 5394 3201 
Q 5691 2819 5691 2113 
L 5691 0 
L 5113 0 
L 5113 2094 
Q 5113 2597 4934 2840 
Q 4756 3084 4391 3084 
Q 3944 3084 3684 2787 
Q 3425 2491 3425 1978 
L 3425 0 
L 2847 0 
L 2847 2094 
Q 2847 2600 2669 2842 
Q 2491 3084 2119 3084 
Q 1678 3084 1418 2786 
Q 1159 2488 1159 1978 
L 1159 0 
L 581 0 
L 581 3500 
L 1159 3500 
L 1159 2956 
Q 1356 3278 1631 3431 
Q 1906 3584 2284 3584 
Q 2666 3584 2933 3390 
Q 3200 3197 3328 2828 
z
" transform="scale(0.015625)"/>
      <path id="DejaVuSans-6b" d="M 581 4863 
L 1159 4863 
L 1159 1991 
L 2875 3500 
L 3609 3500 
L 1753 1863 
L 3688 0 
L 2938 0 
L 1159 1709 
L 1159 0 
L 581 0 
L 581 4863 
z
" transform="scale(0.015625)"/>
     </defs>
     <use xlink:href="#DejaVuSans-6f"/>
     <use xlink:href="#DejaVuSans-62" transform="translate(61.181641 0)"/>
     <use xlink:href="#DejaVuSans-73" transform="translate(124.658203 0)"/>
     <use xlink:href="#DejaVuSans-65" transform="translate(176.757812 0)"/>
     <use xlink:href="#DejaVuSans-72" transform="translate(238.28125 0)"/>
     <use xlink:href="#DejaVuSans-76" transform="translate(279.394531 0)"/>
     <use xlink:href="#DejaVuSans-65" transform="translate(338.574219 0)"/>
     <use xlink:href="#DejaVuSans-64" transform="translate(400.097656 0)"/>
     <use xlink:href="#DejaVuSans-2f" transform="translate(463.574219 0)"/>
     <use xlink:href="#DejaVuSans-69" transform="translate(497.265625 0)"/>
     <use xlink:href="#DejaVuSans-6d" transform="translate(525.048828 0)"/>
     <use xlink:href="#DejaVuSans-70" transform="translate(622.460938 0)"/>
     <use xlink:href="#DejaVuSans-75" transform="translate(685.9375 0)"/>
     <use xlink:href="#DejaVuSans-74" transform="translate(749.316406 0)"/>
     <use xlink:href="#DejaVuSans-65" transform="translate(788.525391 0)"/>
     <use xlink:href="#DejaVuSans-64" transform="translate(850.048828 0)"/>
     <use xlink:href="#DejaVuSans-20" transform="translate(913.525391 0)"/>
     <use xlink:href="#DejaVuSans-6d" transform="translate(945.3125 0)"/>
     <use xlink:href="#DejaVuSans-61" transform="translate(1042.724609 0)"/>
     <use xlink:href="#DejaVuSans-73" transform="translate(1104.003906 0)"/>
     <use xlink:href="#DejaVuSans-6b" transform="translate(1156.103516 0)"/>
     <use xlink:href="#DejaVuSans-73" transform="translate(1214.013672 0)"/>
    </g>
   </g>
   <g id="text_6">
    <!-- Preprocessing variants -->
    <g transform="translate(213.925219 174.190935) scale(0.09 -0.09)">
     <defs>
      <path id="DejaVuSans-50" d="M 1259 4147 
L 1259 2394 
L 2053 2394 
Q 2494 2394 2734 2622 
Q 2975 2850 2975 3272 
Q 2975 3691 2734 3919 
Q 2494 4147 2053 4147 
L 1259 4147 
z
M 628 4666 
L 2053 4666 
Q 2838 4666 3239 4311 
Q 3641 3956 3641 3272 
Q 3641 2581 3239 2228 
Q 2838 1875 2053 1875 
L 1259 1875 
L 1259 0 
L 628 0 
L 628 4666 
z
" transform="scale(0.015625)"/>
     </defs>
     <use xlink:href="#DejaVuSans-50"/>
     <use xlink:href="#DejaVuSans-72" transform="translate(58.552734 0)"/>
     <use xlink:href="#DejaVuSans-65" transform="translate(97.416016 0)"/>
     <use xlink:href="#DejaVuSans-70" transform="translate(158.939453 0)"/>
     <use xlink:href="#DejaVuSans-72" transform="translate(222.416016 0)"/>
     <use xlink:href="#DejaVuSans-6f" transform="translate(261.279297 0)"/>
     <use xlink:href="#DejaVuSans-63" transform="translate(322.460938 0)"/>
     <use xlink:href="#DejaVuSans-65" transform="translate(377.441406 0)"/>
     <use xlink:href="#DejaVuSans-73" transform="translate(438.964844 0)"/>
     <use xlink:href="#DejaVuSans-73" transform="translate(491.064453 0)"/>
     <use xlink:href="#DejaVuSans-69" transform="translate(543.164062 0)"/>
     <use xlink:href="#DejaVuSans-6e" transform="translate(570.947266 0)"/>
     <use xlink:href="#DejaVuSans-67" transform="translate(634.326172 0)"/>
     <use xlink:href="#DejaVuSans-20" transform="translate(697.802734 0)"/>
     <use xlink:href="#DejaVuSans-76" transform="translate(729.589844 0)"/>
     <use xlink:href="#DejaVuSans-61" transform="translate(788.769531 0)"/>
     <use xlink:href="#DejaVuSans-72" transform="translate(850.048828 0)"/>
     <use xlink:href="#DejaVuSans-69" transform="translate(891.162109 0)"/>
     <use xlink:href="#DejaVuSans-61" transform="translate(918.945312 0)"/>
     <use xlink:href="#DejaVuSans-6e" transform="translate(980.224609 0)"/>
     <use xlink:href="#DejaVuSans-74" transform="translate(1043.603516 0)"/>
     <use xlink:href="#DejaVuSans-73" transform="translate(1082.8125 0)"/>
    </g>
    <!-- outlier/interp/climatology/SG -->
    <g transform="translate(200.11725 184.610895) scale(0.09 -0.09)">
     <defs>
      <path id="DejaVuSans-53" d="M 3425 4513 
L 3425 3897 
Q 3066 4069 2747 4153 
Q 2428 4238 2131 4238 
Q 1616 4238 1336 4038 
Q 1056 3838 1056 3469 
Q 1056 3159 1242 3001 
Q 1428 2844 1947 2747 
L 2328 2669 
Q 3034 2534 3370 2195 
Q 3706 1856 3706 1288 
Q 3706 609 3251 259 
Q 2797 -91 1919 -91 
Q 1588 -91 1214 -16 
Q 841 59 441 206 
L 441 856 
Q 825 641 1194 531 
Q 1563 422 1919 422 
Q 2459 422 2753 634 
Q 3047 847 3047 1241 
Q 3047 1584 2836 1778 
Q 2625 1972 2144 2069 
L 1759 2144 
Q 1053 2284 737 2584 
Q 422 2884 422 3419 
Q 422 4038 858 4394 
Q 1294 4750 2059 4750 
Q 2388 4750 2728 4690 
Q 3069 4631 3425 4513 
z
" transform="scale(0.015625)"/>
      <path id="DejaVuSans-47" d="M 3809 666 
L 3809 1919 
L 2778 1919 
L 2778 2438 
L 4434 2438 
L 4434 434 
Q 4069 175 3628 42 
Q 3188 -91 2688 -91 
Q 1594 -91 976 548 
Q 359 1188 359 2328 
Q 359 3472 976 4111 
Q 1594 4750 2688 4750 
Q 3144 4750 3555 4637 
Q 3966 4525 4313 4306 
L 4313 3634 
Q 3963 3931 3569 4081 
Q 3175 4231 2741 4231 
Q 1884 4231 1454 3753 
Q 1025 3275 1025 2328 
Q 1025 1384 1454 906 
Q 1884 428 2741 428 
Q 3075 428 3337 486 
Q 3600 544 3809 666 
z
" transform="scale(0.015625)"/>
     </defs>
     <use xlink:href="#DejaVuSans-6f"/>
     <use xlink:href="#DejaVuSans-75" transform="translate(61.181641 0)"/>
     <use xlink:href="#DejaVuSans-74" transform="translate(124.560547 0)"/>
     <use xlink:href="#DejaVuSans-6c" transform="translate(163.769531 0)"/>
     <use xlink:href="#DejaVuSans-69" transform="translate(191.552734 0)"/>
     <use xlink:href="#DejaVuSans-65" transform="translate(219.335938 0)"/>
     <use xlink:href="#DejaVuSans-72" transform="translate(280.859375 0)"/>
     <use xlink:href="#DejaVuSans-2f" transform="translate(321.972656 0)"/>
     <use xlink:href="#DejaVuSans-69" transform="translate(355.664062 0)"/>
     <use xlink:href="#DejaVuSans-6e" transform="translate(383.447266 0)"/>
     <use xlink:href="#DejaVuSans-74" transform="translate(446.826172 0)"/>
     <use xlink:href="#DejaVuSans-65" transform="translate(486.035156 0)"/>
     <use xlink:href="#DejaVuSans-72" transform="translate(547.558594 0)"/>
     <use xlink:href="#DejaVuSans-70" transform="translate(588.671875 0)"/>
     <use xlink:href="#DejaVuSans-2f" transform="translate(652.148438 0)"/>
     <use xlink:href="#DejaVuSans-63" transform="translate(685.839844 0)"/>
     <use xlink:href="#DejaVuSans-6c" transform="translate(740.820312 0)"/>
     <use xlink:href="#DejaVuSans-69" transform="translate(768.603516 0)"/>
     <use xlink:href="#DejaVuSans-6d" transform="translate(796.386719 0)"/>
     <use xlink:href="#DejaVuSans-61" transform="translate(893.798828 0)"/>
     <use xlink:href="#DejaVuSans-74" transform="translate(955.078125 0)"/>
     <use xlink:href="#DejaVuSans-6f" transform="translate(994.287109 0)"/>
     <use xlink:href="#DejaVuSans-6c" transform="translate(1055.46875 0)"/>
     <use xlink:href="#DejaVuSans-6f" transform="translate(1083.251953 0)"/>
     <use xlink:href="#DejaVuSans-67" transform="translate(1144.433594 0)"/>
     <use xlink:href="#DejaVuSans-79" transform="translate(1207.910156 0)"/>
     <use xlink:href="#DejaVuSans-2f" transform="translate(1267.089844 0)"/>
     <use xlink:href="#DejaVuSans-53" transform="translate(1300.78125 0)"/>
     <use xlink:href="#DejaVuSans-47" transform="translate(1364.257812 0)"/>
    </g>
   </g>
   <g id="text_7">
    <!-- Forecast evaluation -->
    <g transform="translate(381.564141 174.190935) scale(0.09 -0.09)">
     <defs>
      <path id="DejaVuSans-46" d="M 628 4666 
L 3309 4666 
L 3309 4134 
L 1259 4134 
L 1259 2759 
L 3109 2759 
L 3109 2228 
L 1259 2228 
L 1259 0 
L 628 0 
L 628 4666 
z
" transform="scale(0.015625)"/>
     </defs>
     <use xlink:href="#DejaVuSans-46"/>
     <use xlink:href="#DejaVuSans-6f" transform="translate(53.894531 0)"/>
     <use xlink:href="#DejaVuSans-72" transform="translate(115.076172 0)"/>
     <use xlink:href="#DejaVuSans-65" transform="translate(153.939453 0)"/>
     <use xlink:href="#DejaVuSans-63" transform="translate(215.462891 0)"/>
     <use xlink:href="#DejaVuSans-61" transform="translate(270.443359 0)"/>
     <use xlink:href="#DejaVuSans-73" transform="translate(331.722656 0)"/>
     <use xlink:href="#DejaVuSans-74" transform="translate(383.822266 0)"/>
     <use xlink:href="#DejaVuSans-20" transform="translate(423.03125 0)"/>
     <use xlink:href="#DejaVuSans-65" transform="translate(454.818359 0)"/>
     <use xlink:href="#DejaVuSans-76" transform="translate(516.341797 0)"/>
     <use xlink:href="#DejaVuSans-61" transform="translate(575.521484 0)"/>
     <use xlink:href="#DejaVuSans-6c" transform="translate(636.800781 0)"/>
     <use xlink:href="#DejaVuSans-75" transform="translate(664.583984 0)"/>
     <use xlink:href="#DejaVuSans-61" transform="translate(727.962891 0)"/>
     <use xlink:href="#DejaVuSans-74" transform="translate(789.242188 0)"/>
     <use xlink:href="#DejaVuSans-69" transform="translate(828.451172 0)"/>
     <use xlink:href="#DejaVuSans-6f" transform="translate(856.234375 0)"/>
     <use xlink:href="#DejaVuSans-6e" transform="translate(917.416016 0)"/>
    </g>
    <!-- rolling origin horizons -->
    <g transform="translate(377.049375 184.610895) scale(0.09 -0.09)">
     <defs>
      <path id="DejaVuSans-7a" d="M 353 3500 
L 3084 3500 
L 3084 2975 
L 922 459 
L 3084 459 
L 3084 0 
L 275 0 
L 275 525 
L 2438 3041 
L 353 3041 
L 353 3500 
z
" transform="scale(0.015625)"/>
     </defs>
     <use xlink:href="#DejaVuSans-72"/>
     <use xlink:href="#DejaVuSans-6f" transform="translate(38.863281 0)"/>
     <use xlink:href="#DejaVuSans-6c" transform="translate(100.044922 0)"/>
     <use xlink:href="#DejaVuSans-6c" transform="translate(127.828125 0)"/>
     <use xlink:href="#DejaVuSans-69" transform="translate(155.611328 0)"/>
     <use xlink:href="#DejaVuSans-6e" transform="translate(183.394531 0)"/>
     <use xlink:href="#DejaVuSans-67" transform="translate(246.773438 0)"/>
     <use xlink:href="#DejaVuSans-20" transform="translate(310.25 0)"/>
     <use xlink:href="#DejaVuSans-6f" transform="translate(342.037109 0)"/>
     <use xlink:href="#DejaVuSans-72" transform="translate(403.21875 0)"/>
     <use xlink:href="#DejaVuSans-69" transform="translate(444.332031 0)"/>
     <use xlink:href="#DejaVuSans-67" transform="translate(472.115234 0)"/>
     <use xlink:href="#DejaVuSans-69" transform="translate(535.591797 0)"/>
     <use xlink:href="#DejaVuSans-6e" transform="translate(563.375 0)"/>
     <use xlink:href="#DejaVuSans-20" transform="translate(626.753906 0)"/>
     <use xlink:href="#DejaVuSans-68" transform="translate(658.541016 0)"/>
     <use xlink:href="#DejaVuSans-6f" transform="translate(721.919922 0)"/>
     <use xlink:href="#DejaVuSans-72" transform="translate(783.101562 0)"/>
     <use xlink:href="#DejaVuSans-69" transform="translate(824.214844 0)"/>
     <use xlink:href="#DejaVuSans-7a" transform="translate(851.998047 0)"/>
     <use xlink:href="#DejaVuSans-6f" transform="translate(904.488281 0)"/>
     <use xlink:href="#DejaVuSans-6e" transform="translate(965.669922 0)"/>
     <use xlink:href="#DejaVuSans-73" transform="translate(1029.048828 0)"/>
    </g>
   </g>
   <g id="text_8">
    <!-- Diagnostics -->
    <g transform="translate(560.292047 174.190935) scale(0.09 -0.09)">
     <use xlink:href="#DejaVuSans-44"/>
     <use xlink:href="#DejaVuSans-69" transform="translate(77.001953 0)"/>
     <use xlink:href="#DejaVuSans-61" transform="translate(104.785156 0)"/>
     <use xlink:href="#DejaVuSans-67" transform="translate(166.064453 0)"/>
     <use xlink:href="#DejaVuSans-6e" transform="translate(229.541016 0)"/>
     <use xlink:href="#DejaVuSans-6f" transform="translate(292.919922 0)"/>
     <use xlink:href="#DejaVuSans-73" transform="translate(354.101562 0)"/>
     <use xlink:href="#DejaVuSans-74" transform="translate(406.201172 0)"/>
     <use xlink:href="#DejaVuSans-69" transform="translate(445.410156 0)"/>
     <use xlink:href="#DejaVuSans-63" transform="translate(473.193359 0)"/>
     <use xlink:href="#DejaVuSans-73" transform="translate(528.173828 0)"/>
    </g>
    <!-- lag, threshold, uncertainty -->
    <g transform="translate(526.780406 184.610895) scale(0.09 -0.09)">
     <defs>
      <path id="DejaVuSans-2c" d="M 750 794 
L 1409 794 
L 1409 256 
L 897 -744 
L 494 -744 
L 750 256 
L 750 794 
z
" transform="scale(0.015625)"/>
     </defs>
     <use xlink:href="#DejaVuSans-6c"/>
     <use xlink:href="#DejaVuSans-61" transform="translate(27.783203 0)"/>
     <use xlink:href="#DejaVuSans-67" transform="translate(89.0625 0)"/>
     <use xlink:href="#DejaVuSans-2c" transform="translate(152.539062 0)"/>
     <use xlink:href="#DejaVuSans-20" transform="translate(184.326172 0)"/>
     <use xlink:href="#DejaVuSans-74" transform="translate(216.113281 0)"/>
     <use xlink:href="#DejaVuSans-68" transform="translate(255.322266 0)"/>
     <use xlink:href="#DejaVuSans-72" transform="translate(318.701172 0)"/>
     <use xlink:href="#DejaVuSans-65" transform="translate(357.564453 0)"/>
     <use xlink:href="#DejaVuSans-73" transform="translate(419.087891 0)"/>
     <use xlink:href="#DejaVuSans-68" transform="translate(471.1875 0)"/>
     <use xlink:href="#DejaVuSans-6f" transform="translate(534.566406 0)"/>
     <use xlink:href="#DejaVuSans-6c" transform="translate(595.748047 0)"/>
     <use xlink:href="#DejaVuSans-64" transform="translate(623.53125 0)"/>
     <use xlink:href="#DejaVuSans-2c" transform="translate(687.007812 0)"/>
     <use xlink:href="#DejaVuSans-20" transform="translate(718.794922 0)"/>
     <use xlink:href="#DejaVuSans-75" transform="translate(750.582031 0)"/>
     <use xlink:href="#DejaVuSans-6e" transform="translate(813.960938 0)"/>
     <use xlink:href="#DejaVuSans-63" transform="translate(877.339844 0)"/>
     <use xlink:href="#DejaVuSans-65" transform="translate(932.320312 0)"/>
     <use xlink:href="#DejaVuSans-72" transform="translate(993.84375 0)"/>
     <use xlink:href="#DejaVuSans-74" transform="translate(1034.957031 0)"/>
     <use xlink:href="#DejaVuSans-61" transform="translate(1074.166016 0)"/>
     <use xlink:href="#DejaVuSans-69" transform="translate(1135.445312 0)"/>
     <use xlink:href="#DejaVuSans-6e" transform="translate(1163.228516 0)"/>
     <use xlink:href="#DejaVuSans-74" transform="translate(1226.607422 0)"/>
     <use xlink:href="#DejaVuSans-79" transform="translate(1265.816406 0)"/>
    </g>
   </g>
   <g id="text_9">
    <!-- Figures 4–7 -->
    <g transform="translate(78.803016 280.635735) scale(0.09 -0.09)">
     <defs>
      <path id="DejaVuSans-34" d="M 2419 4116 
L 825 1625 
L 2419 1625 
L 2419 4116 
z
M 2253 4666 
L 3047 4666 
L 3047 1625 
L 3713 1625 
L 3713 1100 
L 3047 1100 
L 3047 0 
L 2419 0 
L 2419 1100 
L 313 1100 
L 313 1709 
L 2253 4666 
z
" transform="scale(0.015625)"/>
      <path id="DejaVuSans-2013" d="M 313 1978 
L 2888 1978 
L 2888 1528 
L 313 1528 
L 313 1978 
z
" transform="scale(0.015625)"/>
      <path id="DejaVuSans-37" d="M 525 4666 
L 3525 4666 
L 3525 4397 
L 1831 0 
L 1172 0 
L 2766 4134 
L 525 4134 
L 525 4666 
z
" transform="scale(0.015625)"/>
     </defs>
     <use xlink:href="#DejaVuSans-46"/>
     <use xlink:href="#DejaVuSans-69" transform="translate(50.269531 0)"/>
     <use xlink:href="#DejaVuSans-67" transform="translate(78.052734 0)"/>
     <use xlink:href="#DejaVuSans-75" transform="translate(141.529297 0)"/>
     <use xlink:href="#DejaVuSans-72" transform="translate(204.908203 0)"/>
     <use xlink:href="#DejaVuSans-65" transform="translate(243.771484 0)"/>
     <use xlink:href="#DejaVuSans-73" transform="translate(305.294922 0)"/>
     <use xlink:href="#DejaVuSans-20" transform="translate(357.394531 0)"/>
     <use xlink:href="#DejaVuSans-34" transform="translate(389.181641 0)"/>
     <use xlink:href="#DejaVuSans-2013" transform="translate(452.804688 0)"/>
     <use xlink:href="#DejaVuSans-37" transform="translate(502.804688 0)"/>
    </g>
    <!-- source tables + vector exports -->
    <g transform="translate(34.920984 291.055695) scale(0.09 -0.09)">
     <defs>
      <path id="DejaVuSans-78" d="M 3513 3500 
L 2247 1797 
L 3578 0 
L 2900 0 
L 1881 1375 
L 863 0 
L 184 0 
L 1544 1831 
L 300 3500 
L 978 3500 
L 1906 2253 
L 2834 3500 
L 3513 3500 
z
" transform="scale(0.015625)"/>
     </defs>
     <use xlink:href="#DejaVuSans-73"/>
     <use xlink:href="#DejaVuSans-6f" transform="translate(52.099609 0)"/>
     <use xlink:href="#DejaVuSans-75" transform="translate(113.28125 0)"/>
     <use xlink:href="#DejaVuSans-72" transform="translate(176.660156 0)"/>
     <use xlink:href="#DejaVuSans-63" transform="translate(215.523438 0)"/>
     <use xlink:href="#DejaVuSans-65" transform="translate(270.503906 0)"/>
     <use xlink:href="#DejaVuSans-20" transform="translate(332.027344 0)"/>
     <use xlink:href="#DejaVuSans-74" transform="translate(363.814453 0)"/>
     <use xlink:href="#DejaVuSans-61" transform="translate(403.023438 0)"/>
     <use xlink:href="#DejaVuSans-62" transform="translate(464.302734 0)"/>
     <use xlink:href="#DejaVuSans-6c" transform="translate(527.779297 0)"/>
     <use xlink:href="#DejaVuSans-65" transform="translate(555.5625 0)"/>
     <use xlink:href="#DejaVuSans-73" transform="translate(617.085938 0)"/>
     <use xlink:href="#DejaVuSans-20" transform="translate(669.185547 0)"/>
     <use xlink:href="#DejaVuSans-2b" transform="translate(700.972656 0)"/>
     <use xlink:href="#DejaVuSans-20" transform="translate(784.761719 0)"/>
     <use xlink:href="#DejaVuSans-76" transform="translate(816.548828 0)"/>
     <use xlink:href="#DejaVuSans-65" transform="translate(875.728516 0)"/>
     <use xlink:href="#DejaVuSans-63" transform="translate(937.251953 0)"/>
     <use xlink:href="#DejaVuSans-74" transform="translate(992.232422 0)"/>
     <use xlink:href="#DejaVuSans-6f" transform="translate(1031.441406 0)"/>
     <use xlink:href="#DejaVuSans-72" transform="translate(1092.623047 0)"/>
     <use xlink:href="#DejaVuSans-20" transform="translate(1133.736328 0)"/>
     <use xlink:href="#DejaVuSans-65" transform="translate(1165.523438 0)"/>
     <use xlink:href="#DejaVuSans-78" transform="translate(1225.296875 0)"/>
     <use xlink:href="#DejaVuSans-70" transform="translate(1284.476562 0)"/>
     <use xlink:href="#DejaVuSans-6f" transform="translate(1347.953125 0)"/>
     <use xlink:href="#DejaVuSans-72" transform="translate(1409.134766 0)"/>
     <use xlink:href="#DejaVuSans-74" transform="translate(1450.248047 0)"/>
     <use xlink:href="#DejaVuSans-73" transform="translate(1489.457031 0)"/>
    </g>
   </g>
   <g id="text_10">
    <!-- Reviewer matrix -->
    <g transform="translate(228.222562 280.635735) scale(0.09 -0.09)">
     <use xlink:href="#DejaVuSans-52"/>
     <use xlink:href="#DejaVuSans-65" transform="translate(64.982422 0)"/>
     <use xlink:href="#DejaVuSans-76" transform="translate(126.505859 0)"/>
     <use xlink:href="#DejaVuSans-69" transform="translate(185.685547 0)"/>
     <use xlink:href="#DejaVuSans-65" transform="translate(213.46875 0)"/>
     <use xlink:href="#DejaVuSans-77" transform="translate(274.992188 0)"/>
     <use xlink:href="#DejaVuSans-65" transform="translate(356.779297 0)"/>
     <use xlink:href="#DejaVuSans-72" transform="translate(418.302734 0)"/>
     <use xlink:href="#DejaVuSans-20" transform="translate(459.416016 0)"/>
     <use xlink:href="#DejaVuSans-6d" transform="translate(491.203125 0)"/>
     <use xlink:href="#DejaVuSans-61" transform="translate(588.615234 0)"/>
     <use xlink:href="#DejaVuSans-74" transform="translate(649.894531 0)"/>
     <use xlink:href="#DejaVuSans-72" transform="translate(689.103516 0)"/>
     <use xlink:href="#DejaVuSans-69" transform="translate(730.216797 0)"/>
     <use xlink:href="#DejaVuSans-78" transform="translate(758 0)"/>
    </g>
    <!-- artifact-linked responses -->
    <g transform="translate(209.538422 291.055695) scale(0.09 -0.09)">
     <use xlink:href="#DejaVuSans-61"/>
     <use xlink:href="#DejaVuSans-72" transform="translate(61.279297 0)"/>
     <use xlink:href="#DejaVuSans-74" transform="translate(102.392578 0)"/>
     <use xlink:href="#DejaVuSans-69" transform="translate(141.601562 0)"/>
     <use xlink:href="#DejaVuSans-66" transform="translate(169.384766 0)"/>
     <use xlink:href="#DejaVuSans-61" transform="translate(204.589844 0)"/>
     <use xlink:href="#DejaVuSans-63" transform="translate(265.869141 0)"/>
     <use xlink:href="#DejaVuSans-74" transform="translate(320.849609 0)"/>
     <use xlink:href="#DejaVuSans-2d" transform="translate(360.058594 0)"/>
     <use xlink:href="#DejaVuSans-6c" transform="translate(396.142578 0)"/>
     <use xlink:href="#DejaVuSans-69" transform="translate(423.925781 0)"/>
     <use xlink:href="#DejaVuSans-6e" transform="translate(451.708984 0)"/>
     <use xlink:href="#DejaVuSans-6b" transform="translate(515.087891 0)"/>
     <use xlink:href="#DejaVuSans-65" transform="translate(569.373047 0)"/>
     <use xlink:href="#DejaVuSans-64" transform="translate(630.896484 0)"/>
     <use xlink:href="#DejaVuSans-20" transform="translate(694.373047 0)"/>
     <use xlink:href="#DejaVuSans-72" transform="translate(726.160156 0)"/>
     <use xlink:href="#DejaVuSans-65" transform="translate(765.023438 0)"/>
     <use xlink:href="#DejaVuSans-73" transform="translate(826.546875 0)"/>
     <use xlink:href="#DejaVuSans-70" transform="translate(878.646484 0)"/>
     <use xlink:href="#DejaVuSans-6f" transform="translate(942.123047 0)"/>
     <use xlink:href="#DejaVuSans-6e" transform="translate(1003.304688 0)"/>
     <use xlink:href="#DejaVuSans-73" transform="translate(1066.683594 0)"/>
     <use xlink:href="#DejaVuSans-65" transform="translate(1118.783203 0)"/>
     <use xlink:href="#DejaVuSans-73" transform="translate(1180.306641 0)"/>
    </g>
   </g>
   <g id="text_11">
    <!-- Needs-author-input log -->
    <g transform="translate(373.940156 280.635735) scale(0.09 -0.09)">
     <defs>
      <path id="DejaVuSans-4e" d="M 628 4666 
L 1478 4666 
L 3547 763 
L 3547 4666 
L 4159 4666 
L 4159 0 
L 3309 0 
L 1241 3903 
L 1241 0 
L 628 0 
L 628 4666 
z
" transform="scale(0.015625)"/>
     </defs>
     <use xlink:href="#DejaVuSans-4e"/>
     <use xlink:href="#DejaVuSans-65" transform="translate(74.804688 0)"/>
     <use xlink:href="#DejaVuSans-65" transform="translate(136.328125 0)"/>
     <use xlink:href="#DejaVuSans-64" transform="translate(197.851562 0)"/>
     <use xlink:href="#DejaVuSans-73" transform="translate(261.328125 0)"/>
     <use xlink:href="#DejaVuSans-2d" transform="translate(313.427734 0)"/>
     <use xlink:href="#DejaVuSans-61" transform="translate(349.511719 0)"/>
     <use xlink:href="#DejaVuSans-75" transform="translate(410.791016 0)"/>
     <use xlink:href="#DejaVuSans-74" transform="translate(474.169922 0)"/>
     <use xlink:href="#DejaVuSans-68" transform="translate(513.378906 0)"/>
     <use xlink:href="#DejaVuSans-6f" transform="translate(576.757812 0)"/>
     <use xlink:href="#DejaVuSans-72" transform="translate(637.939453 0)"/>
     <use xlink:href="#DejaVuSans-2d" transform="translate(672.677734 0)"/>
     <use xlink:href="#DejaVuSans-69" transform="translate(708.761719 0)"/>
     <use xlink:href="#DejaVuSans-6e" transform="translate(736.544922 0)"/>
     <use xlink:href="#DejaVuSans-70" transform="translate(799.923828 0)"/>
     <use xlink:href="#DejaVuSans-75" transform="translate(863.400391 0)"/>
     <use xlink:href="#DejaVuSans-74" transform="translate(926.779297 0)"/>
     <use xlink:href="#DejaVuSans-20" transform="translate(965.988281 0)"/>
     <use xlink:href="#DejaVuSans-6c" transform="translate(997.775391 0)"/>
     <use xlink:href="#DejaVuSans-6f" transform="translate(1025.558594 0)"/>
     <use xlink:href="#DejaVuSans-67" transform="translate(1086.740234 0)"/>
    </g>
    <!-- missing satellite/model inputs -->
    <g transform="translate(358.192969 291.055695) scale(0.09 -0.09)">
     <use xlink:href="#DejaVuSans-6d"/>
     <use xlink:href="#DejaVuSans-69" transform="translate(97.412109 0)"/>
     <use xlink:href="#DejaVuSans-73" transform="translate(125.195312 0)"/>
     <use xlink:href="#DejaVuSans-73" transform="translate(177.294922 0)"/>
     <use xlink:href="#DejaVuSans-69" transform="translate(229.394531 0)"/>
     <use xlink:href="#DejaVuSans-6e" transform="translate(257.177734 0)"/>
     <use xlink:href="#DejaVuSans-67" transform="translate(320.556641 0)"/>
     <use xlink:href="#DejaVuSans-20" transform="translate(384.033203 0)"/>
     <use xlink:href="#DejaVuSans-73" transform="translate(415.820312 0)"/>
     <use xlink:href="#DejaVuSans-61" transform="translate(467.919922 0)"/>
     <use xlink:href="#DejaVuSans-74" transform="translate(529.199219 0)"/>
     <use xlink:href="#DejaVuSans-65" transform="translate(568.408203 0)"/>
     <use xlink:href="#DejaVuSans-6c" transform="translate(629.931641 0)"/>
     <use xlink:href="#DejaVuSans-6c" transform="translate(657.714844 0)"/>
     <use xlink:href="#DejaVuSans-69" transform="translate(685.498047 0)"/>
     <use xlink:href="#DejaVuSans-74" transform="translate(713.28125 0)"/>
     <use xlink:href="#DejaVuSans-65" transform="translate(752.490234 0)"/>
     <use xlink:href="#DejaVuSans-2f" transform="translate(814.013672 0)"/>
     <use xlink:href="#DejaVuSans-6d" transform="translate(847.705078 0)"/>
     <use xlink:href="#DejaVuSans-6f" transform="translate(945.117188 0)"/>
     <use xlink:href="#DejaVuSans-64" transform="translate(1006.298828 0)"/>
     <use xlink:href="#DejaVuSans-65" transform="translate(1069.775391 0)"/>
     <use xlink:href="#DejaVuSans-6c" transform="translate(1131.298828 0)"/>
     <use xlink:href="#DejaVuSans-20" transform="translate(1159.082031 0)"/>
     <use xlink:href="#DejaVuSans-69" transform="translate(1190.869141 0)"/>
     <use xlink:href="#DejaVuSans-6e" transform="translate(1218.652344 0)"/>
     <use xlink:href="#DejaVuSans-70" transform="translate(1282.03125 0)"/>
     <use xlink:href="#DejaVuSans-75" transform="translate(1345.507812 0)"/>
     <use xlink:href="#DejaVuSans-74" transform="translate(1408.886719 0)"/>
     <use xlink:href="#DejaVuSans-73" transform="translate(1448.095703 0)"/>
    </g>
   </g>
   <g id="text_12">
    <!-- Manuscript revisions -->
    <g transform="translate(540.115172 280.635735) scale(0.09 -0.09)">
     <defs>
      <path id="DejaVuSans-4d" d="M 628 4666 
L 1569 4666 
L 2759 1491 
L 3956 4666 
L 4897 4666 
L 4897 0 
L 4281 0 
L 4281 4097 
L 3078 897 
L 2444 897 
L 1241 4097 
L 1241 0 
L 628 0 
L 628 4666 
z
" transform="scale(0.015625)"/>
     </defs>
     <use xlink:href="#DejaVuSans-4d"/>
     <use xlink:href="#DejaVuSans-61" transform="translate(86.279297 0)"/>
     <use xlink:href="#DejaVuSans-6e" transform="translate(147.558594 0)"/>
     <use xlink:href="#DejaVuSans-75" transform="translate(210.9375 0)"/>
     <use xlink:href="#DejaVuSans-73" transform="translate(274.316406 0)"/>
     <use xlink:href="#DejaVuSans-63" transform="translate(326.416016 0)"/>
     <use xlink:href="#DejaVuSans-72" transform="translate(381.396484 0)"/>
     <use xlink:href="#DejaVuSans-69" transform="translate(422.509766 0)"/>
     <use xlink:href="#DejaVuSans-70" transform="translate(450.292969 0)"/>
     <use xlink:href="#DejaVuSans-74" transform="translate(513.769531 0)"/>
     <use xlink:href="#DejaVuSans-20" transform="translate(552.978516 0)"/>
     <use xlink:href="#DejaVuSans-72" transform="translate(584.765625 0)"/>
     <use xlink:href="#DejaVuSans-65" transform="translate(623.628906 0)"/>
     <use xlink:href="#DejaVuSans-76" transform="translate(685.152344 0)"/>
     <use xlink:href="#DejaVuSans-69" transform="translate(744.332031 0)"/>
     <use xlink:href="#DejaVuSans-73" transform="translate(772.115234 0)"/>
     <use xlink:href="#DejaVuSans-69" transform="translate(824.214844 0)"/>
     <use xlink:href="#DejaVuSans-6f" transform="translate(851.998047 0)"/>
     <use xlink:href="#DejaVuSans-6e" transform="translate(913.179688 0)"/>
     <use xlink:href="#DejaVuSans-73" transform="translate(976.558594 0)"/>
    </g>
    <!-- claim support or reduction -->
    <g transform="translate(526.797281 291.055695) scale(0.09 -0.09)">
     <use xlink:href="#DejaVuSans-63"/>
     <use xlink:href="#DejaVuSans-6c" transform="translate(54.980469 0)"/>
     <use xlink:href="#DejaVuSans-61" transform="translate(82.763672 0)"/>
     <use xlink:href="#DejaVuSans-69" transform="translate(144.042969 0)"/>
     <use xlink:href="#DejaVuSans-6d" transform="translate(171.826172 0)"/>
     <use xlink:href="#DejaVuSans-20" transform="translate(269.238281 0)"/>
     <use xlink:href="#DejaVuSans-73" transform="translate(301.025391 0)"/>
     <use xlink:href="#DejaVuSans-75" transform="translate(353.125 0)"/>
     <use xlink:href="#DejaVuSans-70" transform="translate(416.503906 0)"/>
     <use xlink:href="#DejaVuSans-70" transform="translate(479.980469 0)"/>
     <use xlink:href="#DejaVuSans-6f" transform="translate(543.457031 0)"/>
     <use xlink:href="#DejaVuSans-72" transform="translate(604.638672 0)"/>
     <use xlink:href="#DejaVuSans-74" transform="translate(645.751953 0)"/>
     <use xlink:href="#DejaVuSans-20" transform="translate(684.960938 0)"/>
     <use xlink:href="#DejaVuSans-6f" transform="translate(716.748047 0)"/>
     <use xlink:href="#DejaVuSans-72" transform="translate(777.929688 0)"/>
     <use xlink:href="#DejaVuSans-20" transform="translate(819.042969 0)"/>
     <use xlink:href="#DejaVuSans-72" transform="translate(850.830078 0)"/>
     <use xlink:href="#DejaVuSans-65" transform="translate(889.693359 0)"/>
     <use xlink:href="#DejaVuSans-64" transform="translate(951.216797 0)"/>
     <use xlink:href="#DejaVuSans-75" transform="translate(1014.693359 0)"/>
     <use xlink:href="#DejaVuSans-63" transform="translate(1078.072266 0)"/>
     <use xlink:href="#DejaVuSans-74" transform="translate(1133.052734 0)"/>
     <use xlink:href="#DejaVuSans-69" transform="translate(1172.261719 0)"/>
     <use xlink:href="#DejaVuSans-6f" transform="translate(1200.044922 0)"/>
     <use xlink:href="#DejaVuSans-6e" transform="translate(1261.226562 0)"/>
    </g>
   </g>
   <g id="text_13">
    <!-- End-to-end reproducible methodology for reviewer-resolution outputs -->
    <g transform="translate(168.203125 14.798437) scale(0.1 -0.1)">
     <defs>
      <path id="DejaVuSans-45" d="M 628 4666 
L 3578 4666 
L 3578 4134 
L 1259 4134 
L 1259 2753 
L 3481 2753 
L 3481 2222 
L 1259 2222 
L 1259 531 
L 3634 531 
L 3634 0 
L 628 0 
L 628 4666 
z
" transform="scale(0.015625)"/>
     </defs>
     <use xlink:href="#DejaVuSans-45"/>
     <use xlink:href="#DejaVuSans-6e" transform="translate(63.183594 0)"/>
     <use xlink:href="#DejaVuSans-64" transform="translate(126.5625 0)"/>
     <use xlink:href="#DejaVuSans-2d" transform="translate(190.039062 0)"/>
     <use xlink:href="#DejaVuSans-74" transform="translate(226.123047 0)"/>
     <use xlink:href="#DejaVuSans-6f" transform="translate(265.332031 0)"/>
     <use xlink:href="#DejaVuSans-2d" transform="translate(328.388672 0)"/>
     <use xlink:href="#DejaVuSans-65" transform="translate(364.472656 0)"/>
     <use xlink:href="#DejaVuSans-6e" transform="translate(425.996094 0)"/>
     <use xlink:href="#DejaVuSans-64" transform="translate(489.375 0)"/>
     <use xlink:href="#DejaVuSans-20" transform="translate(552.851562 0)"/>
     <use xlink:href="#DejaVuSans-72" transform="translate(584.638672 0)"/>
     <use xlink:href="#DejaVuSans-65" transform="translate(623.501953 0)"/>
     <use xlink:href="#DejaVuSans-70" transform="translate(685.025391 0)"/>
     <use xlink:href="#DejaVuSans-72" transform="translate(748.501953 0)"/>
     <use xlink:href="#DejaVuSans-6f" transform="translate(787.365234 0)"/>
     <use xlink:href="#DejaVuSans-64" transform="translate(848.546875 0)"/>
     <use xlink:href="#DejaVuSans-75" transform="translate(912.023438 0)"/>
     <use xlink:href="#DejaVuSans-63" transform="translate(975.402344 0)"/>
     <use xlink:href="#DejaVuSans-69" transform="translate(1030.382812 0)"/>
     <use xlink:href="#DejaVuSans-62" transform="translate(1058.166016 0)"/>
     <use xlink:href="#DejaVuSans-6c" transform="translate(1121.642578 0)"/>
     <use xlink:href="#DejaVuSans-65" transform="translate(1149.425781 0)"/>
     <use xlink:href="#DejaVuSans-20" transform="translate(1210.949219 0)"/>
     <use xlink:href="#DejaVuSans-6d" transform="translate(1242.736328 0)"/>
     <use xlink:href="#DejaVuSans-65" transform="translate(1340.148438 0)"/>
     <use xlink:href="#DejaVuSans-74" transform="translate(1401.671875 0)"/>
     <use xlink:href="#DejaVuSans-68" transform="translate(1440.880859 0)"/>
     <use xlink:href="#DejaVuSans-6f" transform="translate(1504.259766 0)"/>
     <use xlink:href="#DejaVuSans-64" transform="translate(1565.441406 0)"/>
     <use xlink:href="#DejaVuSans-6f" transform="translate(1628.917969 0)"/>
     <use xlink:href="#DejaVuSans-6c" transform="translate(1690.099609 0)"/>
     <use xlink:href="#DejaVuSans-6f" transform="translate(1717.882812 0)"/>
     <use xlink:href="#DejaVuSans-67" transform="translate(1779.064453 0)"/>
     <use xlink:href="#DejaVuSans-79" transform="translate(1842.541016 0)"/>
     <use xlink:href="#DejaVuSans-20" transform="translate(1901.720703 0)"/>
     <use xlink:href="#DejaVuSans-66" transform="translate(1933.507812 0)"/>
     <use xlink:href="#DejaVuSans-6f" transform="translate(1968.712891 0)"/>
     <use xlink:href="#DejaVuSans-72" transform="translate(2029.894531 0)"/>
     <use xlink:href="#DejaVuSans-20" transform="translate(2071.007812 0)"/>
     <use xlink:href="#DejaVuSans-72" transform="translate(2102.794922 0)"/>
     <use xlink:href="#DejaVuSans-65" transform="translate(2141.658203 0)"/>
     <use xlink:href="#DejaVuSans-76" transform="translate(2203.181641 0)"/>
     <use xlink:href="#DejaVuSans-69" transform="translate(2262.361328 0)"/>
     <use xlink:href="#DejaVuSans-65" transform="translate(2290.144531 0)"/>
     <use xlink:href="#DejaVuSans-77" transform="translate(2351.667969 0)"/>
     <use xlink:href="#DejaVuSans-65" transform="translate(2433.455078 0)"/>
     <use xlink:href="#DejaVuSans-72" transform="translate(2494.978516 0)"/>
     <use xlink:href="#DejaVuSans-2d" transform="translate(2529.716797 0)"/>
     <use xlink:href="#DejaVuSans-72" transform="translate(2565.800781 0)"/>
     <use xlink:href="#DejaVuSans-65" transform="translate(2604.664062 0)"/>
     <use xlink:href="#DejaVuSans-73" transform="translate(2666.1875 0)"/>
     <use xlink:href="#DejaVuSans-6f" transform="translate(2718.287109 0)"/>
     <use xlink:href="#DejaVuSans-6c" transform="translate(2779.46875 0)"/>
     <use xlink:href="#DejaVuSans-75" transform="translate(2807.251953 0)"/>
     <use xlink:href="#DejaVuSans-74" transform="translate(2870.630859 0)"/>
     <use xlink:href="#DejaVuSans-69" transform="translate(2909.839844 0)"/>
     <use xlink:href="#DejaVuSans-6f" transform="translate(2937.623047 0)"/>
     <use xlink:href="#DejaVuSans-6e" transform="translate(2998.804688 0)"/>
     <use xlink:href="#DejaVuSans-20" transform="translate(3062.183594 0)"/>
     <use xlink:href="#DejaVuSans-6f" transform="translate(3093.970703 0)"/>
     <use xlink:href="#DejaVuSans-75" transform="translate(3155.152344 0)"/>
     <use xlink:href="#DejaVuSans-74" transform="translate(3218.53125 0)"/>
     <use xlink:href="#DejaVuSans-70" transform="translate(3257.740234 0)"/>
     <use xlink:href="#DejaVuSans-75" transform="translate(3321.216797 0)"/>
     <use xlink:href="#DejaVuSans-74" transform="translate(3384.595703 0)"/>
     <use xlink:href="#DejaVuSans-73" transform="translate(3423.804688 0)"/>
    </g>
   </g>
  </g>
 </g>
 <defs>
  <clipPath id="p3772a33cb7">
   <rect x="7.2" y="20.798437" width="669.6" height="354.816"/>
  </clipPath>
 </defs>
</svg>
